<svg xmlns="http://www.w3.org/2000/svg" xmlns:xlink="http://www.w3.org/1999/xlink" width="1080" zoomAndPan="magnify" viewBox="0 0 810 809.999993" height="1080" preserveAspectRatio="xMidYMid meet" version="1.0"><defs><clipPath id="f6aeb34b9d"><path d="M 104.449219 342.796875 L 266.789062 342.796875 L 266.789062 772 L 104.449219 772 Z M 104.449219 342.796875 " clip-rule="nonzero"/></clipPath><clipPath id="2b004ba36d"><path d="M 164.449219 342.796875 L 206.789062 342.796875 C 239.925781 342.796875 266.789062 369.660156 266.789062 402.796875 L 266.789062 711.875 C 266.789062 745.011719 239.925781 771.875 206.789062 771.875 L 164.449219 771.875 C 131.3125 771.875 104.449219 745.011719 104.449219 711.875 L 104.449219 402.796875 C 104.449219 369.660156 131.3125 342.796875 164.449219 342.796875 Z M 164.449219 342.796875 " clip-rule="nonzero"/></clipPath><clipPath id="b4e04674a2"><path d="M 323.910156 194.253906 L 486.25 194.253906 L 486.25 771.945312 L 323.910156 771.945312 Z M 323.910156 194.253906 " clip-rule="nonzero"/></clipPath><clipPath id="c4713886a0"><path d="M 383.910156 194.253906 L 426.25 194.253906 C 459.386719 194.253906 486.25 221.113281 486.25 254.253906 L 486.25 711.875 C 486.25 745.011719 459.386719 771.875 426.25 771.875 L 383.910156 771.875 C 350.773438 771.875 323.910156 745.011719 323.910156 711.875 L 323.910156 254.253906 C 323.910156 221.113281 350.773438 194.253906 383.910156 194.253906 Z M 383.910156 194.253906 " clip-rule="nonzero"/></clipPath><clipPath id="2b8e96e907"><path d="M 543.210938 38.125 L 705.550781 38.125 L 705.550781 772 L 543.210938 772 Z M 543.210938 38.125 " clip-rule="nonzero"/></clipPath><clipPath id="254847f69f"><path d="M 603.210938 38.125 L 645.550781 38.125 C 678.6875 38.125 705.550781 64.988281 705.550781 98.125 L 705.550781 711.875 C 705.550781 745.015625 678.6875 771.875 645.550781 771.875 L 603.210938 771.875 C 570.074219 771.875 543.210938 745.015625 543.210938 711.875 L 543.210938 98.125 C 543.210938 64.988281 570.074219 38.125 603.210938 38.125 Z M 603.210938 38.125 " clip-rule="nonzero"/></clipPath></defs><g clip-path="url(#f6aeb34b9d)"><g clip-path="url(#2b004ba36d)"><path fill="#72d7f0" d="M 104.449219 342.796875 L 266.789062 342.796875 L 266.789062 772.105469 L 104.449219 772.105469 Z M 104.449219 342.796875 " fill-opacity="1" fill-rule="nonzero"/></g></g><g clip-path="url(#b4e04674a2)"><g clip-path="url(#c4713886a0)"><path fill="#72d7f0" d="M 323.910156 194.253906 L 486.25 194.253906 L 486.25 771.945312 L 323.910156 771.945312 Z M 323.910156 194.253906 " fill-opacity="1" fill-rule="nonzero"/></g></g><g clip-path="url(#2b8e96e907)"><g clip-path="url(#254847f69f)"><path fill="#72d7f0" d="M 543.210938 38.125 L 705.550781 38.125 L 705.550781 771.816406 L 543.210938 771.816406 Z M 543.210938 38.125 " fill-opacity="1" fill-rule="nonzero"/></g></g></svg>