<svg xmlns="http://www.w3.org/2000/svg" xmlns:xlink="http://www.w3.org/1999/xlink" width="1080" zoomAndPan="magnify" viewBox="0 0 810 809.999993" height="1080" preserveAspectRatio="xMidYMid meet" version="1.0"><defs><clipPath id="17fcdef547"><path d="M 15.199219 13.949219 L 795.949219 13.949219 L 795.949219 793.199219 L 15.199219 793.199219 Z M 15.199219 13.949219 " clip-rule="nonzero"/></clipPath></defs><g clip-path="url(#17fcdef547)"><path fill="#252329" d="M 405.46875 64.691406 C 218.511719 64.691406 66.425781 216.777344 66.425781 403.734375 C 66.425781 590.691406 218.511719 742.792969 405.46875 742.792969 C 592.425781 742.792969 744.511719 590.691406 744.511719 403.734375 C 744.511719 216.777344 592.425781 64.691406 405.46875 64.691406 Z M 405.46875 793.582031 C 352.855469 793.582031 301.796875 783.28125 253.714844 762.941406 C 207.28125 743.296875 165.597656 715.1875 129.800781 679.40625 C 94.015625 643.605469 65.90625 601.921875 46.261719 555.488281 C 25.9375 507.40625 15.621094 456.347656 15.621094 403.734375 C 15.621094 351.121094 25.9375 300.0625 46.261719 251.976562 C 65.90625 205.546875 94.015625 163.863281 129.800781 128.0625 C 165.597656 92.28125 207.28125 64.171875 253.714844 44.542969 C 301.796875 24.203125 352.855469 13.886719 405.46875 13.886719 C 458.082031 13.886719 509.140625 24.203125 557.226562 44.542969 C 603.65625 64.171875 645.339844 92.28125 681.140625 128.0625 C 716.925781 163.863281 745.03125 205.546875 764.679688 251.976562 C 785 300.0625 795.320312 351.121094 795.320312 403.734375 C 795.320312 456.347656 785 507.40625 764.679688 555.488281 C 745.03125 601.90625 716.925781 643.605469 681.140625 679.40625 C 645.339844 715.1875 603.65625 743.296875 557.226562 762.941406 C 509.140625 783.28125 458.082031 793.582031 405.46875 793.582031 " fill-opacity="1" fill-rule="nonzero"/></g><path fill="#252329" d="M 415.316406 160.605469 L 395.625 160.605469 C 394.035156 160.605469 392.730469 159.300781 392.730469 157.714844 L 392.730469 97.203125 C 392.730469 95.613281 394.035156 94.308594 395.625 94.308594 L 415.316406 94.308594 C 416.90625 94.308594 418.210938 95.613281 418.210938 97.203125 L 418.210938 157.714844 C 418.210938 159.300781 416.90625 160.605469 415.316406 160.605469 " fill-opacity="1" fill-rule="nonzero"/><path fill="#252329" d="M 415.316406 713.160156 L 395.625 713.160156 C 394.035156 713.160156 392.730469 711.855469 392.730469 710.265625 L 392.730469 649.753906 C 392.730469 648.167969 394.035156 646.859375 395.625 646.859375 L 415.316406 646.859375 C 416.90625 646.859375 418.210938 648.167969 418.210938 649.753906 L 418.210938 710.265625 C 418.210938 711.855469 416.90625 713.160156 415.316406 713.160156 " fill-opacity="1" fill-rule="nonzero"/><path fill="#252329" d="M 584.34375 238.78125 L 570.421875 224.859375 C 569.304688 223.730469 569.304688 221.886719 570.421875 220.773438 L 613.207031 177.988281 C 614.339844 176.855469 616.179688 176.855469 617.3125 177.988281 L 631.214844 191.894531 C 632.347656 193.023438 632.347656 194.867188 631.214844 195.996094 L 588.433594 238.78125 C 587.316406 239.898438 585.476562 239.898438 584.34375 238.78125 " fill-opacity="1" fill-rule="nonzero"/><path fill="#252329" d="M 193.628906 629.480469 L 179.707031 615.574219 C 178.589844 614.441406 178.589844 612.601562 179.707031 611.46875 L 222.492188 568.6875 C 223.625 567.570312 225.464844 567.570312 226.597656 568.6875 L 240.515625 582.605469 C 241.632812 583.738281 241.632812 585.578125 240.515625 586.695312 L 197.734375 629.480469 C 196.601562 630.613281 194.761719 630.613281 193.628906 629.480469 " fill-opacity="1" fill-rule="nonzero"/><path fill="#252329" d="M 648.597656 413.582031 L 648.597656 393.886719 C 648.597656 392.300781 649.902344 390.992188 651.492188 390.992188 L 712 390.992188 C 713.589844 390.992188 714.894531 392.300781 714.894531 393.886719 L 714.894531 413.582031 C 714.894531 415.167969 713.589844 416.476562 712 416.476562 L 651.492188 416.476562 C 649.902344 416.476562 648.597656 415.167969 648.597656 413.582031 " fill-opacity="1" fill-rule="nonzero"/><path fill="#252329" d="M 96.042969 413.582031 L 96.042969 393.886719 C 96.042969 392.300781 97.347656 390.992188 98.9375 390.992188 L 159.449219 390.992188 C 161.039062 390.992188 162.34375 392.300781 162.34375 393.886719 L 162.34375 413.582031 C 162.34375 415.167969 161.039062 416.476562 159.449219 416.476562 L 98.9375 416.476562 C 97.347656 416.476562 96.042969 415.167969 96.042969 413.582031 " fill-opacity="1" fill-rule="nonzero"/><path fill="#252329" d="M 570.421875 582.605469 L 584.34375 568.6875 C 585.476562 567.570312 587.316406 567.570312 588.433594 568.6875 L 631.214844 611.46875 C 632.347656 612.601562 632.347656 614.441406 631.214844 615.574219 L 617.3125 629.480469 C 616.179688 630.613281 614.339844 630.613281 613.207031 629.480469 L 570.421875 586.695312 C 569.304688 585.578125 569.304688 583.738281 570.421875 582.605469 " fill-opacity="1" fill-rule="nonzero"/><path fill="#252329" d="M 179.707031 191.894531 L 193.628906 177.988281 C 194.761719 176.855469 196.601562 176.855469 197.734375 177.988281 L 240.515625 220.773438 C 241.632812 221.886719 241.632812 223.730469 240.515625 224.859375 L 226.597656 238.78125 C 225.464844 239.898438 223.625 239.898438 222.492188 238.78125 L 179.707031 195.996094 C 178.589844 194.867188 178.589844 193.023438 179.707031 191.894531 " fill-opacity="1" fill-rule="nonzero"/><path fill="#252329" d="M 544.296875 509.953125 L 438.40625 404.0625 C 438.40625 403.953125 438.421875 403.84375 438.421875 403.734375 C 438.421875 396.371094 436 389.578125 431.925781 384.089844 L 431.925781 234.832031 C 431.925781 220.285156 420.019531 208.375 405.46875 208.375 C 390.921875 208.375 379.011719 220.285156 379.011719 234.832031 L 379.011719 384.089844 C 374.9375 389.578125 372.515625 396.371094 372.515625 403.734375 C 372.515625 417.984375 381.578125 430.128906 394.253906 434.722656 L 506.890625 547.359375 C 517.179688 557.644531 534.007812 557.644531 544.296875 547.359375 C 554.582031 537.070312 554.582031 520.242188 544.296875 509.953125 " fill-opacity="1" fill-rule="nonzero"/></svg>