<svg xmlns="http://www.w3.org/2000/svg" xmlns:xlink="http://www.w3.org/1999/xlink" width="1080" zoomAndPan="magnify" viewBox="0 0 810 809.999993" height="1080" preserveAspectRatio="xMidYMid meet" version="1.0"><defs><clipPath id="71c9f1a483"><path d="M 286 461 L 553 461 L 553 804.886719 L 286 804.886719 Z M 286 461 " clip-rule="nonzero"/></clipPath></defs><path stroke-linecap="butt" transform="matrix(0.750063, 0, 0, 0.750264, -116.340166, -116.583197)" fill="none" stroke-linejoin="miter" d="M 862.448667 1189.104036 C 875.374663 1174.447734 888.186084 1160.129854 900.872516 1146.145191 C 917.725264 1127.479883 929.771126 1111.745835 936.999684 1098.937841 C 954.617992 1067.704038 969.29384 1027.515053 965.403543 991.506888 C 960.768516 949.001009 947.842521 909.77002 926.625557 873.824333 C 919.438662 861.682771 917.391959 862.489779 920.495865 876.24015 C 925.563146 898.51877 922.224886 920.417315 910.481083 941.946199 C 910.137362 942.602219 909.637404 943.107249 908.991625 943.461291 C 908.340638 943.815333 907.64278 943.961115 906.903259 943.893431 C 906.163738 943.830953 905.497127 943.570628 904.903427 943.107249 C 904.309727 942.649077 903.893095 942.065949 903.643116 941.357865 C 890.050511 902.897438 871.369791 873.90243 847.600959 854.378049 C 820.197015 831.807865 790.850527 819.55176 779.950403 783.189553 C 774.841458 766.336108 772.5604 747.082465 773.112437 725.439038 C 775.23205 644.228026 765.566197 563.787577 688.723707 519.355293 C 687.937315 518.923153 687.114468 518.82423 686.249957 519.063729 C 684.010562 519.688509 683.770999 520.771461 685.541683 522.302173 C 708.602242 542.258693 719.210724 567.07288 717.361921 596.734319 C 713.0602 665.975583 626.077939 704.337087 582.409739 746.358761 C 519.201518 807.254004 495.036885 885.726395 509.926257 981.786349 C 509.978336 982.166424 509.926257 982.525673 509.764812 982.874508 C 509.603368 983.223344 509.358597 983.499288 509.035707 983.702342 C 508.712818 983.905396 508.358681 984.004319 507.973296 983.999113 C 507.59312 983.993906 507.238983 983.88457 506.921302 983.671103 C 468.559947 957.977018 454.415305 922.031331 441.447646 880.306427 C 438.937441 872.251969 437.265707 872.408164 436.442859 880.780219 C 429.839248 945.679261 437.031351 1007.402337 458.008752 1065.939034 C 465.789347 1087.624113 478.340374 1109.231095 495.667041 1130.759979 C 514.681065 1154.293366 536.26779 1176.394965 560.432422 1197.05957 " stroke="#f57621" stroke-width="2" stroke-opacity="1" stroke-miterlimit="4"/><g clip-path="url(#71c9f1a483)"><path stroke-linecap="butt" transform="matrix(0.750063, 0, 0, 0.750264, -116.340166, -116.583197)" fill="none" stroke-linejoin="miter" d="M 792.438935 1212.439576 C 837.778869 1183.132178 865.281762 1144.848772 874.942407 1097.584151 C 881.0721 1067.688419 882.03556 1038.282098 877.832789 1009.365188 C 875.473613 993.100077 872.645726 993.02198 869.34392 1009.130896 C 865.375504 1028.301234 856.105451 1045.472277 841.528553 1060.633609 C 836.305035 1066.095229 833.945858 1065.053929 834.456232 1057.509708 C 838.153837 1001.368002 819.629355 955.519549 778.887993 919.969556 C 744.469015 889.912423 690.312115 877.359547 683.067933 824.737436 C 681.354536 812.653146 686.187462 800.574062 692.905647 790.848317 C 700.056086 780.596716 698.603084 779.159721 688.546639 786.547747 C 662.850885 805.405696 653.247527 845.41766 654.721361 875.828836 C 655.820227 898.378194 656.153532 920.125751 655.721277 941.066301 C 654.955716 977.897093 620.364878 987.503088 602.91843 1014.608135 C 595.497179 1026.161362 589.799742 1038.21962 585.831326 1050.793321 C 582.331621 1062.028952 578.618392 1062.107049 574.691639 1051.027614 C 570.764886 1040.10958 568.70256 1028.967667 568.50466 1017.617493 C 568.426541 1012.942055 567.421418 1012.744208 565.499704 1017.023952 C 545.756574 1060.81063 539.095677 1108.663586 566.207978 1151.622431 C 581.529605 1175.905554 607.397219 1198.985976 643.816029 1220.868902 " stroke="#fcc021" stroke-width="2" stroke-opacity="1" stroke-miterlimit="4"/></g><path fill="#ef5922" d="M 530.550781 775.558594 C 540.246094 764.5625 549.855469 753.820312 559.371094 743.328125 C 572.011719 729.324219 581.046875 717.519531 586.46875 707.910156 C 599.683594 684.476562 610.691406 654.324219 607.773438 627.308594 C 604.296875 595.417969 594.601562 565.984375 578.6875 539.015625 C 573.296875 529.90625 571.761719 530.511719 574.089844 540.828125 C 577.890625 557.542969 575.386719 573.972656 566.578125 590.125 C 566.320312 590.617188 565.945312 590.996094 565.460938 591.261719 C 564.972656 591.527344 564.449219 591.636719 563.894531 591.585938 C 563.339844 591.539062 562.839844 591.34375 562.394531 590.996094 C 561.949219 590.652344 561.636719 590.214844 561.449219 589.683594 C 551.253906 560.828125 537.242188 539.074219 519.414062 524.425781 C 498.859375 507.492188 476.847656 498.296875 468.671875 471.015625 C 464.839844 458.371094 463.128906 443.925781 463.542969 427.6875 C 465.132812 366.757812 457.882812 306.40625 400.246094 273.070312 C 399.65625 272.746094 399.039062 272.671875 398.390625 272.851562 C 396.710938 273.320312 396.53125 274.132812 397.859375 275.28125 C 415.15625 290.253906 423.113281 308.871094 421.726562 331.125 C 418.5 383.074219 353.257812 411.855469 320.503906 443.382812 C 273.09375 489.070312 254.96875 547.945312 266.136719 620.015625 C 266.175781 620.300781 266.136719 620.570312 266.015625 620.832031 C 265.894531 621.09375 265.710938 621.300781 265.46875 621.453125 C 265.226562 621.605469 264.960938 621.679688 264.671875 621.675781 C 264.386719 621.671875 264.121094 621.589844 263.882812 621.429688 C 235.109375 602.152344 224.5 575.183594 214.773438 543.878906 C 212.890625 537.835938 211.636719 537.953125 211.019531 544.234375 C 206.066406 592.925781 211.460938 639.234375 227.195312 683.152344 C 233.03125 699.421875 242.445312 715.632812 255.441406 731.785156 C 269.703125 749.441406 285.894531 766.023438 304.019531 781.527344 C 285.601562 774.894531 269.070312 766.40625 254.425781 756.058594 C 203.355469 720.101562 168.128906 673.75 148.738281 617.007812 C 140.457031 592.78125 135.003906 563.90625 132.382812 530.394531 C 128.492188 480.992188 131.191406 432.035156 140.472656 383.515625 C 141.976562 375.558594 143.390625 375.585938 144.714844 383.605469 C 146.101562 392.152344 147.53125 400.921875 149.003906 409.910156 C 154.527344 444.042969 171.679688 487.816406 201.074219 509.128906 C 201.53125 509.460938 202.042969 509.652344 202.609375 509.703125 C 203.171875 509.753906 203.710938 509.660156 204.222656 509.414062 C 204.734375 509.171875 205.148438 508.8125 205.460938 508.339844 C 205.777344 507.871094 205.949219 507.351562 205.980469 506.785156 C 206.539062 493.726562 206.863281 480.359375 206.953125 466.683594 C 207.527344 368.128906 262.867188 274.132812 350.917969 223.464844 C 391.140625 200.296875 432.558594 175.136719 457.398438 136.273438 C 484.273438 94.226562 474.992188 51.382812 447.144531 13.359375 C 443.34375 8.203125 444.152344 7.347656 449.574219 10.796875 C 479.191406 29.675781 499.964844 68.496094 507.921875 100.460938 C 517.4375 138.839844 519.28125 178.585938 513.445312 219.707031 C 509.027344 250.832031 506.59375 282.003906 509.070312 312.113281 C 510.707031 331.652344 519.191406 350.929688 533.25 365.125 C 557.738281 389.792969 583.683594 409.335938 599.152344 441.835938 C 608.730469 461.90625 616.65625 485.324219 622.933594 512.089844 C 623.007812 512.410156 623.113281 512.71875 623.257812 513.015625 C 623.402344 513.3125 623.578125 513.585938 623.785156 513.84375 C 623.996094 514.097656 624.230469 514.324219 624.492188 514.523438 C 624.75 514.726562 625.03125 514.894531 625.332031 515.027344 C 625.632812 515.164062 625.945312 515.261719 626.265625 515.324219 C 626.589844 515.386719 626.917969 515.414062 627.246094 515.398438 C 627.574219 515.386719 627.898438 515.335938 628.214844 515.246094 C 628.53125 515.15625 628.835938 515.035156 629.121094 514.875 C 629.859375 514.492188 630.433594 513.960938 630.847656 513.285156 C 648.292969 485.636719 654.746094 456.777344 650.207031 426.714844 C 649.261719 420.613281 649.984375 420.40625 652.371094 426.09375 C 672.96875 475.4375 681.929688 527.109375 679.246094 581.105469 C 678.777344 590.65625 677.066406 600.074219 674.121094 609.359375 C 650.074219 685.140625 602.21875 740.542969 530.550781 775.558594 Z M 530.550781 775.558594 " fill-opacity="1" fill-rule="nonzero"/><path fill="#fa921f" d="M 530.550781 775.558594 C 515.671875 783.957031 498.167969 789.796875 478.039062 793.066406 C 512.046875 771.078125 532.675781 742.355469 539.921875 706.894531 C 544.519531 684.464844 545.242188 662.402344 542.089844 640.707031 C 540.320312 628.503906 538.199219 628.445312 535.722656 640.53125 C 532.746094 654.914062 525.792969 667.796875 514.859375 679.171875 C 510.941406 683.269531 509.171875 682.488281 509.554688 676.828125 C 512.328125 634.707031 498.433594 600.308594 467.875 573.636719 C 442.058594 551.085938 401.4375 541.667969 396.003906 502.1875 C 394.71875 493.121094 398.34375 484.058594 403.382812 476.761719 C 408.746094 469.070312 407.65625 467.992188 400.113281 473.535156 C 380.839844 487.683594 373.636719 517.703125 374.742188 540.519531 C 375.566406 557.4375 375.816406 573.753906 375.492188 589.464844 C 374.917969 617.097656 348.972656 624.304688 335.886719 644.640625 C 330.320312 653.308594 326.046875 662.355469 323.070312 671.789062 C 320.445312 680.21875 317.660156 680.277344 314.714844 671.964844 C 311.769531 663.773438 310.222656 655.414062 310.074219 646.898438 C 310.015625 643.390625 309.265625 643.242188 307.820312 646.453125 C 293.011719 679.304688 288.015625 715.207031 308.351562 747.4375 C 319.84375 765.65625 339.246094 782.972656 366.5625 799.390625 C 342.3125 796.148438 321.464844 790.191406 304.019531 781.527344 C 285.894531 766.023438 269.703125 749.441406 255.441406 731.785156 C 242.445312 715.632812 233.03125 699.421875 227.195312 683.152344 C 211.460938 639.234375 206.066406 592.925781 211.019531 544.234375 C 211.636719 537.953125 212.890625 537.835938 214.773438 543.878906 C 224.5 575.183594 235.109375 602.152344 263.882812 621.429688 C 264.121094 621.589844 264.386719 621.671875 264.671875 621.675781 C 264.960938 621.679688 265.226562 621.605469 265.46875 621.453125 C 265.710938 621.300781 265.894531 621.09375 266.015625 620.832031 C 266.136719 620.570312 266.175781 620.300781 266.136719 620.015625 C 254.96875 547.945312 273.09375 489.070312 320.503906 443.382812 C 353.257812 411.855469 418.5 383.074219 421.726562 331.125 C 423.113281 308.871094 415.15625 290.253906 397.859375 275.28125 C 396.53125 274.132812 396.710938 273.320312 398.390625 272.851562 C 399.039062 272.671875 399.65625 272.746094 400.246094 273.070312 C 457.882812 306.40625 465.132812 366.757812 463.542969 427.6875 C 463.128906 443.925781 464.839844 458.371094 468.671875 471.015625 C 476.847656 498.296875 498.859375 507.492188 519.414062 524.425781 C 537.242188 539.074219 551.253906 560.828125 561.449219 589.683594 C 561.636719 590.214844 561.949219 590.652344 562.394531 590.996094 C 562.839844 591.34375 563.339844 591.539062 563.894531 591.585938 C 564.449219 591.636719 564.972656 591.527344 565.460938 591.261719 C 565.945312 590.996094 566.320312 590.617188 566.578125 590.125 C 575.386719 573.972656 577.890625 557.542969 574.089844 540.828125 C 571.761719 530.511719 573.296875 529.90625 578.6875 539.015625 C 594.601562 565.984375 604.296875 595.417969 607.773438 627.308594 C 610.691406 654.324219 599.683594 684.476562 586.46875 707.910156 C 581.046875 717.519531 572.011719 729.324219 559.371094 743.328125 C 549.855469 753.820312 540.246094 764.5625 530.550781 775.558594 Z M 530.550781 775.558594 " fill-opacity="1" fill-rule="nonzero"/><path fill="#fdee23" d="M 478.039062 793.066406 C 468.226562 797.753906 454.644531 800.746094 437.285156 802.042969 C 409.882812 804.074219 386.308594 803.191406 366.5625 799.390625 C 339.246094 782.972656 319.84375 765.65625 308.351562 747.4375 C 288.015625 715.207031 293.011719 679.304688 307.820312 646.453125 C 309.265625 643.242188 310.015625 643.390625 310.074219 646.898438 C 310.222656 655.414062 311.769531 663.773438 314.714844 671.964844 C 317.660156 680.277344 320.445312 680.21875 323.070312 671.789062 C 326.046875 662.355469 330.320312 653.308594 335.886719 644.640625 C 348.972656 624.304688 374.917969 617.097656 375.492188 589.464844 C 375.816406 573.753906 375.566406 557.4375 374.742188 540.519531 C 373.636719 517.703125 380.839844 487.683594 400.113281 473.535156 C 407.65625 467.992188 408.746094 469.070312 403.382812 476.761719 C 398.34375 484.058594 394.71875 493.121094 396.003906 502.1875 C 401.4375 541.667969 442.058594 551.085938 467.875 573.636719 C 498.433594 600.308594 512.328125 634.707031 509.554688 676.828125 C 509.171875 682.488281 510.941406 683.269531 514.859375 679.171875 C 525.792969 667.796875 532.746094 654.914062 535.722656 640.53125 C 538.199219 628.445312 540.320312 628.503906 542.089844 640.707031 C 545.242188 662.402344 544.519531 684.464844 539.921875 706.894531 C 532.675781 742.355469 512.046875 771.078125 478.039062 793.066406 Z M 478.039062 793.066406 " fill-opacity="1" fill-rule="nonzero"/></svg>