<svg xmlns="http://www.w3.org/2000/svg" xmlns:xlink="http://www.w3.org/1999/xlink" width="1080" zoomAndPan="magnify" viewBox="0 0 810 809.999993" height="1080" preserveAspectRatio="xMidYMid meet" version="1.0"><defs><clipPath id="64a43c833e"><path d="M 349 740 L 463 740 L 463 773.074219 L 349 773.074219 Z M 349 740 " clip-rule="nonzero"/></clipPath></defs><path fill="#72d7f0" d="M 522.898438 418.53125 C 522.796875 348.960938 477.996094 299.035156 419.496094 292.179688 C 403.214844 290.273438 392.117188 279.390625 391.796875 265.015625 C 391.453125 249.574219 400.949219 238.3125 417.980469 236.035156 C 434.335938 233.855469 445.449219 225.714844 452.074219 210.847656 C 453.429688 207.785156 455.046875 204.785156 456.964844 202.058594 C 463.042969 193.410156 471.054688 191.085938 480.765625 195.011719 C 488.101562 197.988281 495.488281 200.84375 502.621094 204.265625 C 513.375 209.433594 515.726562 216.144531 513.214844 227.835938 C 511.035156 237.980469 510.066406 248.402344 508.59375 258.695312 C 508.496094 259.371094 508.609375 260.210938 508.925781 260.816406 C 519.289062 280.429688 533.132812 296.855469 554.796875 303.871094 C 560.988281 305.878906 568.871094 303.035156 575.898438 301.953125 C 579.898438 301.347656 583.707031 299.613281 587.664062 298.703125 C 597.492188 296.46875 603.945312 299.28125 608.40625 308.449219 C 612.386719 316.617188 615.894531 325.046875 619.144531 333.546875 C 622.363281 341.976562 620.097656 349.050781 612.589844 354.304688 C 608.085938 357.464844 603.152344 360.019531 598.359375 362.761719 C 585.945312 369.847656 578.570312 379.921875 578.886719 394.789062 C 579.105469 405.125 578.671875 415.503906 579.347656 425.808594 C 580.042969 436.417969 586.304688 444.007812 594.96875 449.578125 C 600.003906 452.828125 605.460938 455.398438 610.570312 458.542969 C 620.746094 464.808594 623.300781 471.808594 619.230469 482.992188 C 616.617188 490.195312 613.703125 497.3125 610.496094 504.269531 C 605.375 515.410156 597.765625 518.601562 585.785156 515.570312 C 578.152344 513.636719 570.472656 511.585938 562.691406 510.632812 C 553.875 509.550781 546.167969 513.132812 539.832031 519.207031 C 532.714844 526.019531 525.613281 532.90625 518.929688 540.152344 C 509.777344 550.066406 506.589844 561.511719 511.222656 574.691406 C 512.808594 579.195312 514.039062 583.855469 515.175781 588.503906 C 517.832031 599.316406 514.976562 606.242188 505.046875 611.152344 C 497.121094 615.078125 488.90625 618.570312 480.578125 621.515625 C 471.300781 624.804688 464.269531 622.089844 458.855469 613.761719 C 455.464844 608.539062 452.722656 602.878906 449.332031 597.667969 C 442.289062 586.84375 432.414062 581.1875 419.207031 581.144531 C 411.859375 581.128906 403.996094 581.476562 397.269531 579.109375 C 382.488281 573.898438 375.734375 560.460938 378.765625 545.808594 C 381.304688 533.539062 393.199219 524 407.601562 524.460938 C 433.035156 525.285156 455.464844 517.246094 475.382812 502.320312 C 506.847656 478.722656 522.320312 446.707031 522.839844 418.5625 Z M 522.898438 418.53125 " fill-opacity="1" fill-rule="nonzero"/><path fill="#72d7f0" d="M 371.417969 652.316406 C 359.179688 652.316406 346.824219 653.324219 334.714844 652.085938 C 316.238281 650.179688 301.71875 636.496094 299.785156 618.09375 C 296.117188 583.222656 284.023438 550.949219 270.757812 519.09375 C 260.726562 494.988281 249.640625 471.289062 237.976562 447.921875 C 222.074219 416.066406 216.617188 382.765625 219.488281 347.417969 C 225.925781 267.789062 286.433594 199.589844 363.132812 182.023438 C 375.460938 179.195312 388.289062 178.398438 400.949219 177.332031 C 408.339844 176.710938 414.703125 179.554688 418.152344 186.742188 C 421.113281 192.90625 420.953125 199.558594 416.191406 204.148438 C 412.769531 207.441406 407.214844 209.964844 402.464844 210.210938 C 369.902344 211.84375 340.269531 221.398438 314.316406 241.375 C 283.921875 264.769531 263.554688 294.894531 255.285156 332.523438 C 247.664062 367.207031 251.171875 400.78125 267.769531 432.546875 C 291.800781 478.5625 311.949219 526.164062 326.007812 576.207031 C 328.984375 586.773438 330.511719 597.785156 332.144531 608.667969 C 333.414062 617.183594 335.808594 620 344.671875 620.054688 C 363.667969 620.1875 382.675781 620.070312 401.671875 620.15625 C 412.683594 620.199219 420.074219 627 420.015625 636.828125 C 419.972656 646.007812 412.28125 653.050781 401.730469 653.238281 C 391.625 653.414062 381.519531 653.28125 371.417969 653.28125 Z M 371.417969 652.316406 " fill-opacity="1" fill-rule="nonzero"/><path fill="#72d7f0" d="M 473.535156 366.050781 C 473.839844 365.996094 475.457031 365.503906 477.101562 365.386719 C 480.652344 365.15625 486.382812 363.726562 487.390625 365.289062 C 490.640625 370.296875 492.71875 376.316406 493.972656 382.203125 C 494.304688 383.792969 490.394531 386.765625 487.957031 388.394531 C 478.3125 394.804688 473.984375 407.289062 479.121094 417.710938 C 480.953125 421.417969 485.082031 424.304688 488.691406 426.773438 C 495.300781 431.292969 496.097656 433.820312 492.472656 442.667969 C 490.019531 448.671875 487.304688 453.695312 479.265625 450.332031 C 464.253906 444.066406 444.265625 464.445312 451.769531 479.066406 C 454.441406 484.265625 452.132812 487.988281 446.691406 490.441406 C 433.828125 496.242188 433.902344 496.417969 426.308594 484.640625 C 418.875 473.121094 398.191406 473.886719 390.773438 485.96875 C 384.550781 496.085938 383.988281 496.257812 373.0625 491.710938 C 364.589844 488.175781 363.449219 486.558594 366.335938 477.464844 C 369.484375 467.5625 364.246094 461.648438 357.894531 455.597656 C 352.121094 450.101562 346.085938 447.703125 338.363281 451.253906 C 332.878906 453.78125 328.796875 452.410156 326.039062 446.621094 C 321.042969 436.128906 321.160156 432.519531 327.410156 428.375 C 338.683594 420.898438 341.238281 414.132812 338.710938 401.15625 C 337.441406 394.585938 333.097656 391.542969 327.8125 388.785156 C 321.390625 385.421875 320.726562 382.390625 324.0625 373.773438 C 327.523438 364.8125 329.574219 363.46875 336.9375 365.300781 C 349.246094 368.375 363.492188 360.554688 366.539062 348.414062 C 367.332031 345.253906 366.179688 341.3125 365.082031 338.007812 C 362.972656 331.597656 364.171875 327.226562 371.042969 325.132812 C 373.09375 324.511719 375.039062 323.488281 376.988281 322.5625 C 381.796875 320.28125 385.015625 321.710938 387.757812 326.230469 C 395.277344 338.613281 402.335938 341.992188 415.875 338.09375 C 420.058594 336.894531 423.898438 332.40625 426.597656 328.523438 C 432.210938 320.457031 434.058594 319.605469 443.703125 323.992188 C 452.042969 327.789062 453.242188 330.457031 450.5 339.117188 C 446.847656 350.664062 459.507812 366.457031 473.507812 366.023438 Z M 455.335938 407.648438 C 455.4375 381.8125 434.003906 360.367188 408.253906 360.566406 C 382.472656 360.769531 361.054688 382.132812 361.199219 407.953125 C 361.34375 432.5625 380.050781 455.683594 408.960938 455.222656 C 440.207031 454.71875 456.535156 429.316406 455.335938 407.648438 Z M 455.335938 407.648438 " fill-opacity="1" fill-rule="nonzero"/><path fill="#72d7f0" d="M 406.535156 682.136719 C 433.929688 682.136719 461.339844 682.09375 488.734375 682.148438 C 499.558594 682.164062 506.445312 688.386719 506.890625 698.273438 C 507.296875 707.046875 499.285156 714.828125 489.039062 715.320312 C 483.277344 715.59375 477.503906 715.433594 471.730469 715.433594 C 423.898438 715.433594 376.078125 715.433594 328.246094 715.332031 C 324.679688 715.332031 321.015625 715.101562 317.582031 714.25 C 309.582031 712.257812 304.359375 704.78125 305.152344 697.160156 C 306.078125 688.183594 312.253906 682.25 321.449219 682.207031 C 349.8125 682.078125 378.171875 682.164062 406.535156 682.164062 Z M 406.535156 682.136719 " fill-opacity="1" fill-rule="nonzero"/><g clip-path="url(#64a43c833e)"><path fill="#72d7f0" d="M 406.738281 740.074219 C 419.714844 740.074219 432.6875 739.984375 445.664062 740.101562 C 455.984375 740.203125 462.523438 746.667969 462.550781 756.453125 C 462.582031 766.558594 456.578125 772.964844 445.9375 773.066406 C 419.511719 773.296875 393.082031 773.328125 366.65625 773.066406 C 355.441406 772.953125 349.203125 766.472656 349.347656 756.296875 C 349.480469 745.960938 355.65625 740.214844 367.101562 740.101562 C 380.324219 739.972656 393.53125 740.074219 406.75 740.074219 Z M 406.738281 740.074219 " fill-opacity="1" fill-rule="nonzero"/></g><path fill="#72d7f0" d="M 251.648438 178.847656 C 251.429688 189.933594 239.449219 196.960938 231.628906 192.402344 C 229.578125 191.203125 227.613281 189.714844 225.925781 188.042969 C 209.875 172.148438 193.769531 156.300781 177.933594 140.207031 C 169.765625 131.894531 170.949219 121.878906 180.085938 116.625 C 185.699219 113.40625 190.980469 114.269531 195.285156 118.5 C 212.9375 135.847656 230.445312 153.34375 247.734375 171.039062 C 250.058594 173.421875 250.882812 177.246094 251.648438 178.847656 Z M 251.648438 178.847656 " fill-opacity="1" fill-rule="nonzero"/><path fill="#72d7f0" d="M 573.011719 195.835938 C 568.785156 191.882812 563.632812 189.066406 561.871094 184.824219 C 560.382812 181.257812 561.292969 174.761719 563.789062 171.816406 C 571.828125 162.292969 581.066406 153.777344 589.902344 144.929688 C 598.054688 136.757812 606.125 128.488281 614.539062 120.59375 C 622.449219 113.175781 629.21875 112.957031 635.292969 119.265625 C 641.125 125.3125 640.792969 133.265625 633.808594 140.367188 C 618.277344 156.128906 602.660156 171.816406 586.753906 187.203125 C 583.304688 190.539062 578.484375 192.472656 573.011719 195.851562 Z M 573.011719 195.835938 " fill-opacity="1" fill-rule="nonzero"/><path fill="#72d7f0" d="M 679.433594 361.851562 C 667.667969 361.851562 655.890625 361.953125 644.128906 361.808594 C 635.929688 361.707031 630.558594 356.484375 630.15625 348.660156 C 629.796875 341.6875 635.25 335.511719 642.902344 334.558594 C 645.976562 334.183594 649.136719 334.339844 652.253906 334.339844 C 671.710938 334.339844 691.167969 334.339844 710.625 334.414062 C 713.480469 334.414062 716.425781 334.5 719.199219 335.09375 C 726.226562 336.621094 731.234375 343.277344 730.511719 349.683594 C 729.71875 356.785156 724.464844 361.691406 716.902344 361.808594 C 704.417969 361.980469 691.917969 361.851562 679.433594 361.851562 Z M 679.433594 361.851562 " fill-opacity="1" fill-rule="nonzero"/><path fill="#72d7f0" d="M 131.023438 361.835938 C 119.246094 361.835938 107.484375 361.953125 95.707031 361.792969 C 87.074219 361.679688 81.863281 356.785156 81.445312 348.890625 C 81.054688 341.414062 87.160156 334.671875 95.417969 334.5 C 111.019531 334.183594 126.652344 334.382812 142.269531 334.382812 C 150.683594 334.382812 159.113281 334.039062 167.484375 334.515625 C 179.289062 335.179688 185.773438 346.914062 179.089844 355.933594 C 176.894531 358.894531 172.175781 361.359375 168.464844 361.578125 C 156.007812 362.269531 143.496094 361.835938 131.011719 361.835938 Z M 131.023438 361.835938 " fill-opacity="1" fill-rule="nonzero"/><path fill="#72d7f0" d="M 419.265625 88.160156 C 419.265625 99.433594 419.335938 110.71875 419.238281 121.992188 C 419.164062 130.261719 414.515625 135.835938 407.445312 136.5 C 399.679688 137.21875 394.28125 132.875 392.417969 124.332031 C 392.160156 123.164062 391.871094 121.980469 391.871094 120.796875 C 391.886719 97.757812 391.695312 74.722656 392.214844 51.6875 C 392.316406 47.574219 394.339844 41.945312 397.414062 39.878906 C 401.007812 37.453125 407.34375 36.503906 411.328125 37.988281 C 414.835938 39.300781 418.71875 44.742188 418.992188 48.597656 C 419.929688 61.71875 419.351562 74.953125 419.351562 88.144531 C 419.324219 88.144531 419.292969 88.144531 419.265625 88.144531 Z M 419.265625 88.160156 " fill-opacity="1" fill-rule="nonzero"/></svg>