<svg xmlns="http://www.w3.org/2000/svg" xmlns:xlink="http://www.w3.org/1999/xlink" width="841" zoomAndPan="magnify" viewBox="0 0 630.75 374.999991" height="500" preserveAspectRatio="xMidYMid meet" version="1.0"><defs><g/></defs><g fill="#dbf5ff" fill-opacity="1"><g transform="translate(25.733039, 81.398623)"><g><path d="M 41.25 1.5 C 33.601562 1.5 26.878906 0.238281 21.078125 -2.28125 C 15.285156 -4.8125 10.78125 -8.320312 7.5625 -12.8125 C 4.351562 -17.300781 2.75 -22.539062 2.75 -28.53125 C 2.75 -33.40625 3.757812 -37.820312 5.78125 -41.78125 C 7.800781 -45.75 10.671875 -49.175781 14.390625 -52.0625 C 18.109375 -54.945312 22.554688 -57.164062 27.734375 -58.71875 C 32.921875 -60.269531 38.675781 -61.046875 45 -61.046875 C 51.375 -61.046875 57.148438 -60.226562 62.328125 -58.59375 C 67.515625 -56.957031 71.785156 -54.695312 75.140625 -51.8125 C 78.492188 -48.925781 80.585938 -45.546875 81.421875 -41.671875 L 61.21875 -38.171875 C 60.382812 -40.609375 58.441406 -42.578125 55.390625 -44.078125 C 52.335938 -45.578125 48.84375 -46.328125 44.90625 -46.328125 C 40.863281 -46.328125 37.300781 -45.601562 34.21875 -44.15625 C 31.144531 -42.71875 28.75 -40.722656 27.03125 -38.171875 C 25.3125 -35.617188 24.453125 -32.625 24.453125 -29.1875 C 24.453125 -25.914062 25.421875 -23.03125 27.359375 -20.53125 C 29.304688 -18.039062 32.023438 -16.101562 35.515625 -14.71875 C 39.003906 -13.332031 43.050781 -12.640625 47.65625 -12.640625 C 51.257812 -12.640625 54.515625 -13.097656 57.421875 -14.015625 C 60.335938 -14.929688 62.695312 -16.207031 64.5 -17.84375 C 66.300781 -19.476562 67.3125 -21.320312 67.53125 -23.375 L 35.59375 -23.375 L 35.59375 -34.34375 L 88.5 -34.34375 L 88.5 0 L 71.359375 0 L 70.53125 -9.734375 L 70.453125 -9.734375 C 68.566406 -7.460938 66.109375 -5.476562 63.078125 -3.78125 C 60.054688 -2.09375 56.6875 -0.789062 52.96875 0.125 C 49.257812 1.039062 45.351562 1.5 41.25 1.5 Z M 41.25 1.5 "/></g></g></g><g fill="#dbf5ff" fill-opacity="1"><g transform="translate(117.144235, 81.398623)"><g><path d="M 69.28125 1.65625 C 66.289062 1.65625 63.753906 1.15625 61.671875 0.15625 C 59.585938 -0.832031 57.8125 -2.101562 56.34375 -3.65625 C 54.875 -5.207031 53.554688 -6.789062 52.390625 -8.40625 L 48.65625 -14.640625 C 47.4375 -16.410156 45.9375 -17.710938 44.15625 -18.546875 C 42.382812 -19.378906 40.53125 -19.796875 38.59375 -19.796875 L 25.859375 -19.796875 L 25.859375 0 L 4.15625 0 L 4.15625 -59.546875 L 54.234375 -59.546875 C 62.210938 -59.546875 68.390625 -57.894531 72.765625 -54.59375 C 77.148438 -51.300781 79.34375 -46.660156 79.34375 -40.671875 C 79.34375 -36.234375 77.832031 -32.515625 74.8125 -29.515625 C 71.789062 -26.523438 67.5625 -24.503906 62.125 -23.453125 L 62.125 -23.375 C 64.175781 -22.59375 65.925781 -21.09375 67.375 -18.875 L 71.609375 -12.46875 C 72.160156 -11.75 72.8125 -11.15625 73.5625 -10.6875 C 74.3125 -10.21875 75.269531 -9.984375 76.4375 -9.984375 C 77.15625 -9.984375 77.941406 -10.160156 78.796875 -10.515625 C 79.660156 -10.878906 80.34375 -11.335938 80.84375 -11.890625 L 84.5 -3.15625 C 82.894531 -1.769531 80.648438 -0.625 77.765625 0.28125 C 74.878906 1.195312 72.050781 1.65625 69.28125 1.65625 Z M 25.859375 -32.015625 L 47.734375 -32.015625 C 50.835938 -32.015625 53.265625 -32.664062 55.015625 -33.96875 C 56.765625 -35.28125 57.640625 -37.070312 57.640625 -39.34375 C 57.640625 -41.664062 56.765625 -43.476562 55.015625 -44.78125 C 53.265625 -46.09375 50.835938 -46.75 47.734375 -46.75 L 25.859375 -46.75 Z M 25.859375 -32.015625 "/></g></g></g><g fill="#dbf5ff" fill-opacity="1"><g transform="translate(201.651764, 81.398623)"><g><path d="M 46.328125 2.078125 C 39.785156 2.078125 33.851562 1.316406 28.53125 -0.203125 C 23.207031 -1.734375 18.617188 -3.894531 14.765625 -6.6875 C 10.910156 -9.488281 7.941406 -12.84375 5.859375 -16.75 C 3.785156 -20.664062 2.75 -25.007812 2.75 -29.78125 C 2.75 -34.539062 3.785156 -38.875 5.859375 -42.78125 C 7.941406 -46.695312 10.910156 -50.054688 14.765625 -52.859375 C 18.617188 -55.660156 23.207031 -57.820312 28.53125 -59.34375 C 33.851562 -60.863281 39.785156 -61.625 46.328125 -61.625 C 52.867188 -61.625 58.8125 -60.863281 64.15625 -59.34375 C 69.507812 -57.820312 74.113281 -55.660156 77.96875 -52.859375 C 81.820312 -50.054688 84.785156 -46.695312 86.859375 -42.78125 C 88.941406 -38.875 89.984375 -34.539062 89.984375 -29.78125 C 89.984375 -25.007812 88.941406 -20.664062 86.859375 -16.75 C 84.785156 -12.84375 81.820312 -9.488281 77.96875 -6.6875 C 74.113281 -3.894531 69.507812 -1.734375 64.15625 -0.203125 C 58.8125 1.316406 52.867188 2.078125 46.328125 2.078125 Z M 46.328125 -13.21875 C 50.703125 -13.21875 54.523438 -13.910156 57.796875 -15.296875 C 61.078125 -16.691406 63.644531 -18.632812 65.5 -21.125 C 67.351562 -23.625 68.28125 -26.507812 68.28125 -29.78125 C 68.28125 -33.101562 67.351562 -36 65.5 -38.46875 C 63.644531 -40.9375 61.078125 -42.863281 57.796875 -44.25 C 54.523438 -45.632812 50.703125 -46.328125 46.328125 -46.328125 C 42.003906 -46.328125 38.191406 -45.632812 34.890625 -44.25 C 31.585938 -42.863281 29.019531 -40.9375 27.1875 -38.46875 C 25.363281 -36 24.453125 -33.101562 24.453125 -29.78125 C 24.453125 -26.507812 25.363281 -23.625 27.1875 -21.125 C 29.019531 -18.632812 31.585938 -16.691406 34.890625 -15.296875 C 38.191406 -13.910156 42.003906 -13.21875 46.328125 -13.21875 Z M 46.328125 -13.21875 "/></g></g></g><g fill="#dbf5ff" fill-opacity="1"><g transform="translate(294.31062, 81.398623)"><g><path d="M 25.859375 0 L -0.078125 -59.546875 L 21.953125 -59.546875 L 39 -16.71875 L 39.171875 -16.71875 L 56.0625 -59.546875 L 80.09375 -59.546875 L 97.234375 -16.71875 L 97.3125 -16.71875 L 114.1875 -59.546875 L 136.15625 -59.546875 L 110.203125 0 L 85.828125 0 L 68.203125 -42.75 L 68.03125 -42.75 L 50.234375 0 Z M 25.859375 0 "/></g></g></g><g fill="#dbf5ff" fill-opacity="1"><g transform="translate(430.470887, 81.398623)"><g><path d="M 23.953125 0 L 23.953125 -44.25 L 0.75 -44.25 L 0.75 -59.546875 L 68.859375 -59.546875 L 68.859375 -44.25 L 45.65625 -44.25 L 45.65625 0 Z M 23.953125 0 "/></g></g></g><g fill="#dbf5ff" fill-opacity="1"><g transform="translate(500.089786, 81.398623)"><g><path d="M 4.15625 0 L 4.15625 -59.546875 L 25.859375 -59.546875 L 25.859375 -38.421875 L 58.71875 -38.421875 L 58.71875 -59.546875 L 80.421875 -59.546875 L 80.421875 0 L 58.71875 0 L 58.71875 -23.703125 L 25.859375 -23.703125 L 25.859375 0 Z M 4.15625 0 "/></g></g></g><g fill="#dbf5ff" fill-opacity="1"><g transform="translate(25.733039, 166.114632)"><g><path d="M 4.15625 0 L 4.15625 -59.546875 L 25.703125 -59.546875 L 25.703125 0 Z M 4.15625 0 "/></g></g></g><g fill="#dbf5ff" fill-opacity="1"><g transform="translate(55.59348, 166.114632)"><g><path d="M 39.25 1.75 C 34.488281 1.75 29.722656 1.300781 24.953125 0.40625 C 20.179688 -0.476562 15.769531 -1.695312 11.71875 -3.25 C 7.675781 -4.800781 4.320312 -6.601562 1.65625 -8.65625 L 9.15625 -21.546875 C 11.476562 -19.710938 14.34375 -18.085938 17.75 -16.671875 C 21.164062 -15.265625 24.84375 -14.144531 28.78125 -13.3125 C 32.71875 -12.476562 36.570312 -12.0625 40.34375 -12.0625 C 44.550781 -12.0625 47.890625 -12.515625 50.359375 -13.421875 C 52.828125 -14.335938 54.0625 -15.578125 54.0625 -17.140625 C 54.0625 -18.410156 53.046875 -19.460938 51.015625 -20.296875 C 48.992188 -21.128906 45.710938 -21.796875 41.171875 -22.296875 L 30.1875 -23.53125 C 20.820312 -24.53125 14.003906 -26.429688 9.734375 -29.234375 C 5.460938 -32.035156 3.328125 -36.070312 3.328125 -41.34375 C 3.328125 -45.601562 4.820312 -49.226562 7.8125 -52.21875 C 10.8125 -55.21875 15 -57.492188 20.375 -59.046875 C 25.75 -60.597656 31.957031 -61.375 39 -61.375 C 45.269531 -61.375 51.203125 -60.679688 56.796875 -59.296875 C 62.398438 -57.910156 67.035156 -56.023438 70.703125 -53.640625 L 64.625 -41.171875 C 61.40625 -43.328125 57.507812 -45.039062 52.9375 -46.3125 C 48.363281 -47.59375 43.773438 -48.207031 39.171875 -48.15625 C 34.960938 -48.101562 31.457031 -47.617188 28.65625 -46.703125 C 25.851562 -45.785156 24.425781 -44.523438 24.375 -42.921875 C 24.375 -41.804688 25.242188 -40.890625 26.984375 -40.171875 C 28.734375 -39.453125 31.519531 -38.898438 35.34375 -38.515625 L 46.40625 -37.34375 C 56.5 -36.289062 63.816406 -34.320312 68.359375 -31.4375 C 72.910156 -28.550781 75.1875 -24.394531 75.1875 -18.96875 C 75.238281 -14.863281 73.78125 -11.257812 70.8125 -8.15625 C 67.851562 -5.050781 63.679688 -2.625 58.296875 -0.875 C 52.921875 0.875 46.570312 1.75 39.25 1.75 Z M 39.25 1.75 "/></g></g></g><g fill="#dbf5ff" fill-opacity="1"><g transform="translate(132.448772, 166.114632)"><g/></g></g><g fill="#dbf5ff" fill-opacity="1"><g transform="translate(151.662595, 166.114632)"><g><path d="M 4.15625 0 L 4.15625 -59.546875 L 30.28125 -59.546875 L 62.296875 -20.703125 L 62.375 -20.703125 L 62.375 -59.546875 L 82.84375 -59.546875 L 82.84375 0 L 56.8125 0 L 24.703125 -39.34375 L 24.625 -39.34375 L 24.625 0 Z M 4.15625 0 "/></g></g></g><g fill="#dbf5ff" fill-opacity="1"><g transform="translate(238.665445, 166.114632)"><g><path d="M 46.328125 2.078125 C 39.785156 2.078125 33.851562 1.316406 28.53125 -0.203125 C 23.207031 -1.734375 18.617188 -3.894531 14.765625 -6.6875 C 10.910156 -9.488281 7.941406 -12.84375 5.859375 -16.75 C 3.785156 -20.664062 2.75 -25.007812 2.75 -29.78125 C 2.75 -34.539062 3.785156 -38.875 5.859375 -42.78125 C 7.941406 -46.695312 10.910156 -50.054688 14.765625 -52.859375 C 18.617188 -55.660156 23.207031 -57.820312 28.53125 -59.34375 C 33.851562 -60.863281 39.785156 -61.625 46.328125 -61.625 C 52.867188 -61.625 58.8125 -60.863281 64.15625 -59.34375 C 69.507812 -57.820312 74.113281 -55.660156 77.96875 -52.859375 C 81.820312 -50.054688 84.785156 -46.695312 86.859375 -42.78125 C 88.941406 -38.875 89.984375 -34.539062 89.984375 -29.78125 C 89.984375 -25.007812 88.941406 -20.664062 86.859375 -16.75 C 84.785156 -12.84375 81.820312 -9.488281 77.96875 -6.6875 C 74.113281 -3.894531 69.507812 -1.734375 64.15625 -0.203125 C 58.8125 1.316406 52.867188 2.078125 46.328125 2.078125 Z M 46.328125 -13.21875 C 50.703125 -13.21875 54.523438 -13.910156 57.796875 -15.296875 C 61.078125 -16.691406 63.644531 -18.632812 65.5 -21.125 C 67.351562 -23.625 68.28125 -26.507812 68.28125 -29.78125 C 68.28125 -33.101562 67.351562 -36 65.5 -38.46875 C 63.644531 -40.9375 61.078125 -42.863281 57.796875 -44.25 C 54.523438 -45.632812 50.703125 -46.328125 46.328125 -46.328125 C 42.003906 -46.328125 38.191406 -45.632812 34.890625 -44.25 C 31.585938 -42.863281 29.019531 -40.9375 27.1875 -38.46875 C 25.363281 -36 24.453125 -33.101562 24.453125 -29.78125 C 24.453125 -26.507812 25.363281 -23.625 27.1875 -21.125 C 29.019531 -18.632812 31.585938 -16.691406 34.890625 -15.296875 C 38.191406 -13.910156 42.003906 -13.21875 46.328125 -13.21875 Z M 46.328125 -13.21875 "/></g></g></g><g fill="#dbf5ff" fill-opacity="1"><g transform="translate(331.324302, 166.114632)"><g><path d="M 23.953125 0 L 23.953125 -44.25 L 0.75 -44.25 L 0.75 -59.546875 L 68.859375 -59.546875 L 68.859375 -44.25 L 45.65625 -44.25 L 45.65625 0 Z M 23.953125 0 "/></g></g></g><g fill="#dbf5ff" fill-opacity="1"><g transform="translate(25.733039, 250.830642)"><g><path d="M 39.25 1.75 C 34.488281 1.75 29.722656 1.300781 24.953125 0.40625 C 20.179688 -0.476562 15.769531 -1.695312 11.71875 -3.25 C 7.675781 -4.800781 4.320312 -6.601562 1.65625 -8.65625 L 9.15625 -21.546875 C 11.476562 -19.710938 14.34375 -18.085938 17.75 -16.671875 C 21.164062 -15.265625 24.84375 -14.144531 28.78125 -13.3125 C 32.71875 -12.476562 36.570312 -12.0625 40.34375 -12.0625 C 44.550781 -12.0625 47.890625 -12.515625 50.359375 -13.421875 C 52.828125 -14.335938 54.0625 -15.578125 54.0625 -17.140625 C 54.0625 -18.410156 53.046875 -19.460938 51.015625 -20.296875 C 48.992188 -21.128906 45.710938 -21.796875 41.171875 -22.296875 L 30.1875 -23.53125 C 20.820312 -24.53125 14.003906 -26.429688 9.734375 -29.234375 C 5.460938 -32.035156 3.328125 -36.070312 3.328125 -41.34375 C 3.328125 -45.601562 4.820312 -49.226562 7.8125 -52.21875 C 10.8125 -55.21875 15 -57.492188 20.375 -59.046875 C 25.75 -60.597656 31.957031 -61.375 39 -61.375 C 45.269531 -61.375 51.203125 -60.679688 56.796875 -59.296875 C 62.398438 -57.910156 67.035156 -56.023438 70.703125 -53.640625 L 64.625 -41.171875 C 61.40625 -43.328125 57.507812 -45.039062 52.9375 -46.3125 C 48.363281 -47.59375 43.773438 -48.207031 39.171875 -48.15625 C 34.960938 -48.101562 31.457031 -47.617188 28.65625 -46.703125 C 25.851562 -45.785156 24.425781 -44.523438 24.375 -42.921875 C 24.375 -41.804688 25.242188 -40.890625 26.984375 -40.171875 C 28.734375 -39.453125 31.519531 -38.898438 35.34375 -38.515625 L 46.40625 -37.34375 C 56.5 -36.289062 63.816406 -34.320312 68.359375 -31.4375 C 72.910156 -28.550781 75.1875 -24.394531 75.1875 -18.96875 C 75.238281 -14.863281 73.78125 -11.257812 70.8125 -8.15625 C 67.851562 -5.050781 63.679688 -2.625 58.296875 -0.875 C 52.921875 0.875 46.570312 1.75 39.25 1.75 Z M 39.25 1.75 "/></g></g></g><g fill="#dbf5ff" fill-opacity="1"><g transform="translate(102.58833, 250.830642)"><g><path d="M 41.578125 1.5 C 33.597656 1.5 26.75 0.378906 21.03125 -1.859375 C 15.320312 -4.109375 10.941406 -7.378906 7.890625 -11.671875 C 4.847656 -15.972656 3.328125 -21.234375 3.328125 -27.453125 L 3.328125 -59.546875 L 25.03125 -59.546875 L 25.03125 -28.609375 C 25.03125 -23.785156 26.523438 -20.179688 29.515625 -17.796875 C 32.515625 -15.410156 36.566406 -14.21875 41.671875 -14.21875 C 46.773438 -14.21875 50.804688 -15.410156 53.765625 -17.796875 C 56.734375 -20.179688 58.21875 -23.785156 58.21875 -28.609375 L 58.21875 -59.546875 L 79.84375 -59.546875 L 79.84375 -27.453125 C 79.84375 -21.234375 78.332031 -15.972656 75.3125 -11.671875 C 72.289062 -7.378906 67.921875 -4.109375 62.203125 -1.859375 C 56.492188 0.378906 49.617188 1.5 41.578125 1.5 Z M 41.578125 1.5 "/></g></g></g><g fill="#dbf5ff" fill-opacity="1"><g transform="translate(185.765048, 250.830642)"><g><path d="M 4.15625 0 L 4.15625 -59.546875 L 46.5 -59.546875 C 58.082031 -59.546875 66.976562 -56.984375 73.1875 -51.859375 C 79.394531 -46.734375 82.5 -39.375 82.5 -29.78125 C 82.5 -20.238281 79.394531 -12.890625 73.1875 -7.734375 C 66.976562 -2.578125 58.082031 0 46.5 0 Z M 25.28125 -14.71875 L 43.5 -14.71875 C 49.269531 -14.71875 53.707031 -16.019531 56.8125 -18.625 C 59.914062 -21.238281 61.46875 -24.957031 61.46875 -29.78125 C 61.46875 -34.601562 59.914062 -38.328125 56.8125 -40.953125 C 53.707031 -43.585938 49.269531 -44.90625 43.5 -44.90625 L 25.28125 -44.90625 Z M 25.28125 -14.71875 "/></g></g></g><g fill="#dbf5ff" fill-opacity="1"><g transform="translate(271.02118, 250.830642)"><g><path d="M 4.15625 0 L 4.15625 -59.546875 L 46.5 -59.546875 C 58.082031 -59.546875 66.976562 -56.984375 73.1875 -51.859375 C 79.394531 -46.734375 82.5 -39.375 82.5 -29.78125 C 82.5 -20.238281 79.394531 -12.890625 73.1875 -7.734375 C 66.976562 -2.578125 58.082031 0 46.5 0 Z M 25.28125 -14.71875 L 43.5 -14.71875 C 49.269531 -14.71875 53.707031 -16.019531 56.8125 -18.625 C 59.914062 -21.238281 61.46875 -24.957031 61.46875 -29.78125 C 61.46875 -34.601562 59.914062 -38.328125 56.8125 -40.953125 C 53.707031 -43.585938 49.269531 -44.90625 43.5 -44.90625 L 25.28125 -44.90625 Z M 25.28125 -14.71875 "/></g></g></g><g fill="#dbf5ff" fill-opacity="1"><g transform="translate(356.277313, 250.830642)"><g><path d="M 4.15625 0 L 4.15625 -59.546875 L 66.953125 -59.546875 L 66.953125 -46.078125 L 25.203125 -46.078125 L 25.203125 -36.09375 L 63.625 -36.09375 L 63.625 -24.53125 L 25.203125 -24.53125 L 25.203125 -13.46875 L 67.78125 -13.46875 L 67.78125 0 Z M 4.15625 0 "/></g></g></g><g fill="#dbf5ff" fill-opacity="1"><g transform="translate(425.72988, 250.830642)"><g><path d="M 4.15625 0 L 4.15625 -59.546875 L 30.28125 -59.546875 L 62.296875 -20.703125 L 62.375 -20.703125 L 62.375 -59.546875 L 82.84375 -59.546875 L 82.84375 0 L 56.8125 0 L 24.703125 -39.34375 L 24.625 -39.34375 L 24.625 0 Z M 4.15625 0 "/></g></g></g><g fill="#dbf5ff" fill-opacity="1"><g transform="translate(25.733039, 310.157784)"><g><path d="M 10.734375 0.515625 C 8.984375 0.515625 7.4375 0.132812 6.09375 -0.625 C 4.75 -1.382812 3.703125 -2.441406 2.953125 -3.796875 C 2.210938 -5.160156 1.84375 -6.742188 1.84375 -8.546875 C 1.84375 -10.429688 2.171875 -12.179688 2.828125 -13.796875 C 3.484375 -15.410156 4.398438 -16.816406 5.578125 -18.015625 C 6.753906 -19.222656 8.113281 -20.15625 9.65625 -20.8125 C 11.195312 -21.46875 12.859375 -21.796875 14.640625 -21.796875 C 17.210938 -21.796875 19.253906 -21.125 20.765625 -19.78125 C 22.285156 -18.4375 23.0625 -16.617188 23.09375 -14.328125 L 19.40625 -14.328125 C 19.40625 -15.796875 18.890625 -16.894531 17.859375 -17.625 C 16.828125 -18.351562 15.582031 -18.71875 14.125 -18.71875 C 12.550781 -18.71875 11.117188 -18.296875 9.828125 -17.453125 C 8.535156 -16.609375 7.503906 -15.445312 6.734375 -13.96875 C 5.960938 -12.5 5.578125 -10.816406 5.578125 -8.921875 C 5.578125 -6.890625 6.132812 -5.316406 7.25 -4.203125 C 8.363281 -3.085938 9.707031 -2.53125 11.28125 -2.53125 C 12.75 -2.53125 14.117188 -2.898438 15.390625 -3.640625 C 16.660156 -4.390625 17.566406 -5.492188 18.109375 -6.953125 L 21.796875 -6.953125 C 21.253906 -5.492188 20.441406 -4.195312 19.359375 -3.0625 C 18.273438 -1.9375 16.992188 -1.054688 15.515625 -0.421875 C 14.046875 0.203125 12.453125 0.515625 10.734375 0.515625 Z M 10.734375 0.515625 "/></g></g></g><g fill="#dbf5ff" fill-opacity="1"><g transform="translate(50.151566, 310.157784)"><g><path d="M 1.078125 0 L 6.5625 -30.90625 L 10.171875 -30.90625 L 4.671875 0 Z M 1.078125 0 "/></g></g></g><g fill="#dbf5ff" fill-opacity="1"><g transform="translate(59.721549, 310.157784)"><g><path d="M 8.328125 -26.015625 C 7.609375 -26.015625 7.015625 -26.242188 6.546875 -26.703125 C 6.078125 -27.160156 5.84375 -27.742188 5.84375 -28.453125 C 5.84375 -29.171875 6.078125 -29.757812 6.546875 -30.21875 C 7.015625 -30.675781 7.609375 -30.90625 8.328125 -30.90625 C 9.015625 -30.90625 9.597656 -30.675781 10.078125 -30.21875 C 10.566406 -29.757812 10.8125 -29.171875 10.8125 -28.453125 C 10.8125 -27.742188 10.566406 -27.160156 10.078125 -26.703125 C 9.597656 -26.242188 9.015625 -26.015625 8.328125 -26.015625 Z M 1.5 0 L 5.234375 -21.296875 L 8.84375 -21.296875 L 5.109375 0 Z M 1.5 0 "/></g></g></g><g fill="#dbf5ff" fill-opacity="1"><g transform="translate(70.064027, 310.157784)"><g><path d="M 10.734375 0.515625 C 8.984375 0.515625 7.4375 0.132812 6.09375 -0.625 C 4.75 -1.382812 3.703125 -2.441406 2.953125 -3.796875 C 2.210938 -5.160156 1.84375 -6.742188 1.84375 -8.546875 C 1.84375 -10.429688 2.171875 -12.179688 2.828125 -13.796875 C 3.484375 -15.410156 4.398438 -16.816406 5.578125 -18.015625 C 6.753906 -19.222656 8.113281 -20.15625 9.65625 -20.8125 C 11.195312 -21.46875 12.859375 -21.796875 14.640625 -21.796875 C 17.210938 -21.796875 19.253906 -21.125 20.765625 -19.78125 C 22.285156 -18.4375 23.0625 -16.617188 23.09375 -14.328125 L 19.40625 -14.328125 C 19.40625 -15.796875 18.890625 -16.894531 17.859375 -17.625 C 16.828125 -18.351562 15.582031 -18.71875 14.125 -18.71875 C 12.550781 -18.71875 11.117188 -18.296875 9.828125 -17.453125 C 8.535156 -16.609375 7.503906 -15.445312 6.734375 -13.96875 C 5.960938 -12.5 5.578125 -10.816406 5.578125 -8.921875 C 5.578125 -6.890625 6.132812 -5.316406 7.25 -4.203125 C 8.363281 -3.085938 9.707031 -2.53125 11.28125 -2.53125 C 12.75 -2.53125 14.117188 -2.898438 15.390625 -3.640625 C 16.660156 -4.390625 17.566406 -5.492188 18.109375 -6.953125 L 21.796875 -6.953125 C 21.253906 -5.492188 20.441406 -4.195312 19.359375 -3.0625 C 18.273438 -1.9375 16.992188 -1.054688 15.515625 -0.421875 C 14.046875 0.203125 12.453125 0.515625 10.734375 0.515625 Z M 10.734375 0.515625 "/></g></g></g><g fill="#dbf5ff" fill-opacity="1"><g transform="translate(94.482554, 310.157784)"><g><path d="M 1.109375 0 L 6.53125 -30.90625 L 10.125 -30.90625 L 7.8125 -17.640625 C 8.726562 -18.929688 9.894531 -19.945312 11.3125 -20.6875 C 12.726562 -21.425781 14.222656 -21.796875 15.796875 -21.796875 C 18.285156 -21.796875 20.148438 -21.03125 21.390625 -19.5 C 22.640625 -17.976562 22.976562 -15.628906 22.40625 -12.453125 L 20.21875 0 L 16.609375 0 L 18.71875 -12.0625 C 19.488281 -16.5 18.054688 -18.71875 14.421875 -18.71875 C 12.585938 -18.71875 10.941406 -18.050781 9.484375 -16.71875 C 8.023438 -15.382812 7.082031 -13.488281 6.65625 -11.03125 L 4.71875 0 Z M 1.109375 0 "/></g></g></g><g fill="#dbf5ff" fill-opacity="1"><g transform="translate(119.072722, 310.157784)"><g><path d="M 10.5625 0.515625 C 7.925781 0.515625 5.8125 -0.296875 4.21875 -1.921875 C 2.632812 -3.554688 1.84375 -5.75 1.84375 -8.5 C 1.84375 -10.957031 2.382812 -13.191406 3.46875 -15.203125 C 4.5625 -17.222656 6.054688 -18.828125 7.953125 -20.015625 C 9.859375 -21.203125 12.03125 -21.796875 14.46875 -21.796875 C 16.320312 -21.796875 17.882812 -21.429688 19.15625 -20.703125 C 20.4375 -19.972656 21.394531 -18.992188 22.03125 -17.765625 C 22.675781 -16.535156 23 -15.175781 23 -13.6875 C 23 -13.113281 22.9375 -12.460938 22.8125 -11.734375 C 22.6875 -11.003906 22.566406 -10.367188 22.453125 -9.828125 L 5.453125 -9.828125 C 5.390625 -9.335938 5.359375 -8.910156 5.359375 -8.546875 C 5.359375 -6.515625 5.929688 -5.003906 7.078125 -4.015625 C 8.222656 -3.023438 9.566406 -2.53125 11.109375 -2.53125 C 12.597656 -2.53125 13.90625 -2.878906 15.03125 -3.578125 C 16.164062 -4.285156 17.050781 -5.210938 17.6875 -6.359375 L 21.25 -6.359375 C 20.363281 -4.378906 18.988281 -2.738281 17.125 -1.4375 C 15.257812 -0.132812 13.070312 0.515625 10.5625 0.515625 Z M 14 -18.75 C 12.28125 -18.75 10.660156 -18.226562 9.140625 -17.1875 C 7.628906 -16.144531 6.585938 -14.625 6.015625 -12.625 L 19.40625 -12.625 C 19.425781 -12.789062 19.441406 -12.953125 19.453125 -13.109375 C 19.472656 -13.265625 19.484375 -13.414062 19.484375 -13.5625 C 19.484375 -15.195312 18.984375 -16.46875 17.984375 -17.375 C 16.984375 -18.289062 15.65625 -18.75 14 -18.75 Z M 12.828125 -23.046875 L 13.265625 -25.75 L 23.265625 -31.203125 L 22.703125 -28.078125 Z M 12.828125 -23.046875 "/></g></g></g><g fill="#dbf5ff" fill-opacity="1"><g transform="translate(143.44832, 310.157784)"><g/></g></g><g fill="#dbf5ff" fill-opacity="1"><g transform="translate(155.721958, 310.157784)"><g><path d="M 12.453125 0.515625 C 11.273438 0.515625 10.207031 0.316406 9.25 -0.078125 C 8.289062 -0.484375 7.472656 -1 6.796875 -1.625 C 6.128906 -2.257812 5.640625 -2.921875 5.328125 -3.609375 L 4.328125 0 L 1.078125 0 L 6.53125 -30.90625 L 10.125 -30.90625 L 7.859375 -17.984375 C 8.710938 -18.984375 9.789062 -19.867188 11.09375 -20.640625 C 12.394531 -21.410156 14.019531 -21.796875 15.96875 -21.796875 C 17.800781 -21.796875 19.367188 -21.394531 20.671875 -20.59375 C 21.972656 -19.800781 22.972656 -18.71875 23.671875 -17.34375 C 24.367188 -15.96875 24.71875 -14.40625 24.71875 -12.65625 C 24.71875 -10.164062 24.179688 -7.925781 23.109375 -5.9375 C 22.035156 -3.957031 20.566406 -2.382812 18.703125 -1.21875 C 16.847656 -0.0625 14.765625 0.515625 12.453125 0.515625 Z M 12.625 -2.625 C 14.25 -2.625 15.691406 -3.035156 16.953125 -3.859375 C 18.210938 -4.691406 19.195312 -5.820312 19.90625 -7.25 C 20.625 -8.6875 20.984375 -10.316406 20.984375 -12.140625 C 20.984375 -14.035156 20.445312 -15.597656 19.375 -16.828125 C 18.300781 -18.054688 16.847656 -18.671875 15.015625 -18.671875 C 13.390625 -18.671875 11.929688 -18.238281 10.640625 -17.375 C 9.359375 -16.519531 8.351562 -15.351562 7.625 -13.875 C 6.894531 -12.40625 6.53125 -10.769531 6.53125 -8.96875 C 6.53125 -7.050781 7.078125 -5.515625 8.171875 -4.359375 C 9.273438 -3.203125 10.757812 -2.625 12.625 -2.625 Z M 12.625 -2.625 "/></g></g></g><g fill="#dbf5ff" fill-opacity="1"><g transform="translate(182.286215, 310.157784)"><g><path d="M 8.796875 0.515625 C 6.648438 0.515625 4.96875 -0.078125 3.75 -1.265625 C 2.539062 -2.453125 1.9375 -4.148438 1.9375 -6.359375 C 1.9375 -6.753906 1.945312 -7.160156 1.96875 -7.578125 C 2 -7.992188 2.054688 -8.414062 2.140625 -8.84375 L 4.375 -21.296875 L 7.984375 -21.296875 L 5.84375 -9.234375 C 5.78125 -8.859375 5.726562 -8.5 5.6875 -8.15625 C 5.644531 -7.8125 5.625 -7.484375 5.625 -7.171875 C 5.625 -4.109375 7.125 -2.578125 10.125 -2.578125 C 11.925781 -2.578125 13.539062 -3.207031 14.96875 -4.46875 C 16.40625 -5.726562 17.367188 -7.53125 17.859375 -9.875 L 19.875 -21.296875 L 23.484375 -21.296875 L 19.75 0 L 16.484375 0 L 16.90625 -3.859375 C 15.988281 -2.484375 14.816406 -1.410156 13.390625 -0.640625 C 11.960938 0.128906 10.429688 0.515625 8.796875 0.515625 Z M 8.796875 0.515625 "/></g></g></g><g fill="#dbf5ff" fill-opacity="1"><g transform="translate(206.876383, 310.157784)"><g><path d="M 8.796875 0 C 7.023438 0 5.648438 -0.347656 4.671875 -1.046875 C 3.703125 -1.753906 3.21875 -2.953125 3.21875 -4.640625 C 3.21875 -4.921875 3.234375 -5.222656 3.265625 -5.546875 C 3.296875 -5.878906 3.335938 -6.234375 3.390625 -6.609375 L 5.453125 -18.234375 L 2.140625 -18.234375 L 2.703125 -21.296875 L 6.015625 -21.296875 L 7.375 -26.390625 L 10.5625 -26.390625 L 9.609375 -21.296875 L 15.921875 -21.296875 L 15.359375 -18.234375 L 9.09375 -18.234375 L 7 -6.609375 C 6.9375 -6.148438 6.90625 -5.75 6.90625 -5.40625 C 6.90625 -4.519531 7.140625 -3.910156 7.609375 -3.578125 C 8.085938 -3.253906 8.859375 -3.09375 9.921875 -3.09375 L 12.703125 -3.09375 L 12.140625 0 Z M 8.796875 0 "/></g></g></g><g fill="#dbf5ff" fill-opacity="1"><g transform="translate(222.754845, 310.157784)"><g/></g></g><g fill="#dbf5ff" fill-opacity="1"><g transform="translate(235.028483, 310.157784)"><g><path d="M 1.765625 9.4375 L 9.015625 -2.0625 L 7.8125 -2.0625 L 2.703125 -21.296875 L 6.53125 -21.296875 L 10.765625 -4.71875 L 21.125 -21.296875 L 24.890625 -21.296875 L 5.53125 9.4375 Z M 1.765625 9.4375 "/></g></g></g><g fill="#dbf5ff" fill-opacity="1"><g transform="translate(258.846194, 310.157784)"><g><path d="M 10.9375 0.515625 C 9.164062 0.515625 7.59375 0.113281 6.21875 -0.6875 C 4.84375 -1.488281 3.769531 -2.585938 3 -3.984375 C 2.226562 -5.390625 1.84375 -6.976562 1.84375 -8.75 C 1.84375 -10.644531 2.171875 -12.378906 2.828125 -13.953125 C 3.484375 -15.523438 4.382812 -16.894531 5.53125 -18.0625 C 6.675781 -19.238281 8.003906 -20.15625 9.515625 -20.8125 C 11.035156 -21.46875 12.6875 -21.796875 14.46875 -21.796875 C 16.238281 -21.796875 17.8125 -21.410156 19.1875 -20.640625 C 20.5625 -19.867188 21.632812 -18.796875 22.40625 -17.421875 C 23.175781 -16.046875 23.5625 -14.457031 23.5625 -12.65625 C 23.5625 -10.800781 23.238281 -9.070312 22.59375 -7.46875 C 21.945312 -5.863281 21.046875 -4.46875 19.890625 -3.28125 C 18.734375 -2.09375 17.394531 -1.160156 15.875 -0.484375 C 14.363281 0.179688 12.71875 0.515625 10.9375 0.515625 Z M 11.421875 -2.578125 C 13.023438 -2.578125 14.460938 -3.003906 15.734375 -3.859375 C 17.003906 -4.722656 18.007812 -5.894531 18.75 -7.375 C 19.5 -8.863281 19.875 -10.539062 19.875 -12.40625 C 19.875 -14.40625 19.289062 -15.957031 18.125 -17.0625 C 16.96875 -18.164062 15.59375 -18.71875 14 -18.71875 C 12.414062 -18.71875 10.992188 -18.285156 9.734375 -17.421875 C 8.484375 -16.566406 7.484375 -15.394531 6.734375 -13.90625 C 5.992188 -12.414062 5.625 -10.742188 5.625 -8.890625 C 5.625 -7.546875 5.882812 -6.40625 6.40625 -5.46875 C 6.9375 -4.539062 7.644531 -3.828125 8.53125 -3.328125 C 9.425781 -2.828125 10.390625 -2.578125 11.421875 -2.578125 Z M 11.421875 -2.578125 "/></g></g></g><g fill="#dbf5ff" fill-opacity="1"><g transform="translate(284.294676, 310.157784)"><g><path d="M 8.796875 0.515625 C 6.648438 0.515625 4.96875 -0.078125 3.75 -1.265625 C 2.539062 -2.453125 1.9375 -4.148438 1.9375 -6.359375 C 1.9375 -6.753906 1.945312 -7.160156 1.96875 -7.578125 C 2 -7.992188 2.054688 -8.414062 2.140625 -8.84375 L 4.375 -21.296875 L 7.984375 -21.296875 L 5.84375 -9.234375 C 5.78125 -8.859375 5.726562 -8.5 5.6875 -8.15625 C 5.644531 -7.8125 5.625 -7.484375 5.625 -7.171875 C 5.625 -4.109375 7.125 -2.578125 10.125 -2.578125 C 11.925781 -2.578125 13.539062 -3.207031 14.96875 -4.46875 C 16.40625 -5.726562 17.367188 -7.53125 17.859375 -9.875 L 19.875 -21.296875 L 23.484375 -21.296875 L 19.75 0 L 16.484375 0 L 16.90625 -3.859375 C 15.988281 -2.484375 14.816406 -1.410156 13.390625 -0.640625 C 11.960938 0.128906 10.429688 0.515625 8.796875 0.515625 Z M 8.796875 0.515625 "/></g></g></g><g fill="#dbf5ff" fill-opacity="1"><g transform="translate(308.884844, 310.157784)"><g/></g></g><g fill="#dbf5ff" fill-opacity="1"><g transform="translate(321.158482, 310.157784)"><g><path d="M 10.46875 -6.703125 C 9.207031 -6.703125 8.09375 -6.867188 7.125 -7.203125 L 5.015625 -5.578125 C 5.648438 -5.179688 6.367188 -4.867188 7.171875 -4.640625 C 7.972656 -4.410156 9.144531 -4.238281 10.6875 -4.125 C 12.6875 -3.976562 14.25 -3.617188 15.375 -3.046875 C 16.507812 -2.472656 17.304688 -1.765625 17.765625 -0.921875 C 18.222656 -0.078125 18.453125 0.800781 18.453125 1.71875 C 18.453125 3.289062 17.992188 4.695312 17.078125 5.9375 C 16.160156 7.1875 14.882812 8.164062 13.25 8.875 C 11.625 9.59375 9.753906 9.953125 7.640625 9.953125 C 5.035156 9.953125 2.914062 9.429688 1.28125 8.390625 C -0.34375 7.347656 -1.15625 5.851562 -1.15625 3.90625 C -1.15625 2.5625 -0.789062 1.335938 -0.0625 0.234375 C 0.664062 -0.867188 1.734375 -1.847656 3.140625 -2.703125 C 2.128906 -3.160156 1.3125 -3.734375 0.6875 -4.421875 L 0.859375 -5.453125 L 4.84375 -8.625 C 3.726562 -9.71875 3.171875 -11.117188 3.171875 -12.828125 C 3.171875 -14.515625 3.613281 -16.035156 4.5 -17.390625 C 5.394531 -18.753906 6.59375 -19.828125 8.09375 -20.609375 C 9.59375 -21.398438 11.273438 -21.796875 13.140625 -21.796875 C 14.367188 -21.796875 15.453125 -21.628906 16.390625 -21.296875 L 24.25 -21.296875 L 23.734375 -18.625 L 19.75 -18.453125 C 20.144531 -17.628906 20.34375 -16.703125 20.34375 -15.671875 C 20.34375 -13.984375 19.90625 -12.457031 19.03125 -11.09375 C 18.164062 -9.738281 16.988281 -8.664062 15.5 -7.875 C 14.007812 -7.09375 12.332031 -6.703125 10.46875 -6.703125 Z M 10.984375 -9.65625 C 12.734375 -9.65625 14.15625 -10.175781 15.25 -11.21875 C 16.351562 -12.269531 16.90625 -13.625 16.90625 -15.28125 C 16.90625 -16.394531 16.519531 -17.265625 15.75 -17.890625 C 14.976562 -18.523438 13.9375 -18.84375 12.625 -18.84375 C 10.875 -18.84375 9.445312 -18.316406 8.34375 -17.265625 C 7.25 -16.222656 6.703125 -14.875 6.703125 -13.21875 C 6.703125 -12.070312 7.078125 -11.191406 7.828125 -10.578125 C 8.585938 -9.960938 9.640625 -9.65625 10.984375 -9.65625 Z M 2.484375 3.21875 C 2.484375 4.394531 2.984375 5.316406 3.984375 5.984375 C 4.992188 6.660156 6.382812 7 8.15625 7 C 10.101562 7 11.703125 6.550781 12.953125 5.65625 C 14.210938 4.769531 14.84375 3.570312 14.84375 2.0625 C 14.84375 1.257812 14.53125 0.550781 13.90625 -0.0625 C 13.28125 -0.675781 12.035156 -1.054688 10.171875 -1.203125 C 8.628906 -1.285156 7.253906 -1.472656 6.046875 -1.765625 C 3.671875 -0.441406 2.484375 1.21875 2.484375 3.21875 Z M 2.484375 3.21875 "/></g></g></g><g fill="#dbf5ff" fill-opacity="1"><g transform="translate(344.761623, 310.157784)"><g><path d="M 10.9375 0.515625 C 9.164062 0.515625 7.59375 0.113281 6.21875 -0.6875 C 4.84375 -1.488281 3.769531 -2.585938 3 -3.984375 C 2.226562 -5.390625 1.84375 -6.976562 1.84375 -8.75 C 1.84375 -10.644531 2.171875 -12.378906 2.828125 -13.953125 C 3.484375 -15.523438 4.382812 -16.894531 5.53125 -18.0625 C 6.675781 -19.238281 8.003906 -20.15625 9.515625 -20.8125 C 11.035156 -21.46875 12.6875 -21.796875 14.46875 -21.796875 C 16.238281 -21.796875 17.8125 -21.410156 19.1875 -20.640625 C 20.5625 -19.867188 21.632812 -18.796875 22.40625 -17.421875 C 23.175781 -16.046875 23.5625 -14.457031 23.5625 -12.65625 C 23.5625 -10.800781 23.238281 -9.070312 22.59375 -7.46875 C 21.945312 -5.863281 21.046875 -4.46875 19.890625 -3.28125 C 18.734375 -2.09375 17.394531 -1.160156 15.875 -0.484375 C 14.363281 0.179688 12.71875 0.515625 10.9375 0.515625 Z M 11.421875 -2.578125 C 13.023438 -2.578125 14.460938 -3.003906 15.734375 -3.859375 C 17.003906 -4.722656 18.007812 -5.894531 18.75 -7.375 C 19.5 -8.863281 19.875 -10.539062 19.875 -12.40625 C 19.875 -14.40625 19.289062 -15.957031 18.125 -17.0625 C 16.96875 -18.164062 15.59375 -18.71875 14 -18.71875 C 12.414062 -18.71875 10.992188 -18.285156 9.734375 -17.421875 C 8.484375 -16.566406 7.484375 -15.394531 6.734375 -13.90625 C 5.992188 -12.414062 5.625 -10.742188 5.625 -8.890625 C 5.625 -7.546875 5.882812 -6.40625 6.40625 -5.46875 C 6.9375 -4.539062 7.644531 -3.828125 8.53125 -3.328125 C 9.425781 -2.828125 10.390625 -2.578125 11.421875 -2.578125 Z M 11.421875 -2.578125 "/></g></g></g><g fill="#dbf5ff" fill-opacity="1"><g transform="translate(370.210105, 310.157784)"><g><path d="M 8.796875 0 C 7.023438 0 5.648438 -0.347656 4.671875 -1.046875 C 3.703125 -1.753906 3.21875 -2.953125 3.21875 -4.640625 C 3.21875 -4.921875 3.234375 -5.222656 3.265625 -5.546875 C 3.296875 -5.878906 3.335938 -6.234375 3.390625 -6.609375 L 5.453125 -18.234375 L 2.140625 -18.234375 L 2.703125 -21.296875 L 6.015625 -21.296875 L 7.375 -26.390625 L 10.5625 -26.390625 L 9.609375 -21.296875 L 15.921875 -21.296875 L 15.359375 -18.234375 L 9.09375 -18.234375 L 7 -6.609375 C 6.9375 -6.148438 6.90625 -5.75 6.90625 -5.40625 C 6.90625 -4.519531 7.140625 -3.910156 7.609375 -3.578125 C 8.085938 -3.253906 8.859375 -3.09375 9.921875 -3.09375 L 12.703125 -3.09375 L 12.140625 0 Z M 8.796875 0 "/></g></g></g><g fill="#dbf5ff" fill-opacity="1"><g transform="translate(386.088567, 310.157784)"><g><path d="M 8.796875 0 C 7.023438 0 5.648438 -0.347656 4.671875 -1.046875 C 3.703125 -1.753906 3.21875 -2.953125 3.21875 -4.640625 C 3.21875 -4.921875 3.234375 -5.222656 3.265625 -5.546875 C 3.296875 -5.878906 3.335938 -6.234375 3.390625 -6.609375 L 5.453125 -18.234375 L 2.140625 -18.234375 L 2.703125 -21.296875 L 6.015625 -21.296875 L 7.375 -26.390625 L 10.5625 -26.390625 L 9.609375 -21.296875 L 15.921875 -21.296875 L 15.359375 -18.234375 L 9.09375 -18.234375 L 7 -6.609375 C 6.9375 -6.148438 6.90625 -5.75 6.90625 -5.40625 C 6.90625 -4.519531 7.140625 -3.910156 7.609375 -3.578125 C 8.085938 -3.253906 8.859375 -3.09375 9.921875 -3.09375 L 12.703125 -3.09375 L 12.140625 0 Z M 8.796875 0 "/></g></g></g><g fill="#dbf5ff" fill-opacity="1"><g transform="translate(401.967029, 310.157784)"><g><path d="M 7.984375 0.515625 C 6.378906 0.515625 5.078125 0.25 4.078125 -0.28125 C 3.078125 -0.8125 2.332031 -1.507812 1.84375 -2.375 C 1.351562 -3.25 1.109375 -4.1875 1.109375 -5.1875 C 1.109375 -6.757812 1.550781 -8.117188 2.4375 -9.265625 C 3.332031 -10.410156 4.570312 -11.289062 6.15625 -11.90625 C 7.75 -12.519531 9.601562 -12.828125 11.71875 -12.828125 L 17.421875 -12.828125 L 17.46875 -13.09375 C 17.550781 -13.582031 17.59375 -14.066406 17.59375 -14.546875 C 17.59375 -15.921875 17.195312 -16.960938 16.40625 -17.671875 C 15.625 -18.390625 14.535156 -18.75 13.140625 -18.75 C 11.765625 -18.75 10.488281 -18.398438 9.3125 -17.703125 C 8.132812 -17.003906 7.320312 -15.984375 6.875 -14.640625 L 3.140625 -14.640625 C 3.585938 -16.179688 4.332031 -17.476562 5.375 -18.53125 C 6.425781 -19.59375 7.664062 -20.398438 9.09375 -20.953125 C 10.53125 -21.515625 12.035156 -21.796875 13.609375 -21.796875 C 16.148438 -21.796875 18.054688 -21.195312 19.328125 -20 C 20.609375 -18.800781 21.25 -17.171875 21.25 -15.109375 C 21.25 -14.796875 21.234375 -14.46875 21.203125 -14.125 C 21.171875 -13.78125 21.128906 -13.4375 21.078125 -13.09375 L 18.796875 0 L 15.53125 0 L 15.96875 -3.78125 C 15.164062 -2.570312 14.113281 -1.550781 12.8125 -0.71875 C 11.507812 0.101562 9.898438 0.515625 7.984375 0.515625 Z M 9.0625 -2.53125 C 10.425781 -2.53125 11.660156 -2.882812 12.765625 -3.59375 C 13.867188 -4.3125 14.773438 -5.242188 15.484375 -6.390625 C 16.203125 -7.535156 16.675781 -8.738281 16.90625 -10 L 16.90625 -10.046875 L 11.5 -10.046875 C 9.46875 -10.046875 7.875 -9.648438 6.71875 -8.859375 C 5.5625 -8.078125 4.984375 -7 4.984375 -5.625 C 4.984375 -4.644531 5.332031 -3.882812 6.03125 -3.34375 C 6.726562 -2.800781 7.738281 -2.53125 9.0625 -2.53125 Z M 9.0625 -2.53125 "/></g></g></g><g fill="#dbf5ff" fill-opacity="1"><g transform="translate(25.733039, 353.109818)"><g><path d="M 8.796875 0 C 7.023438 0 5.648438 -0.347656 4.671875 -1.046875 C 3.703125 -1.753906 3.21875 -2.953125 3.21875 -4.640625 C 3.21875 -4.921875 3.234375 -5.222656 3.265625 -5.546875 C 3.296875 -5.878906 3.335938 -6.234375 3.390625 -6.609375 L 5.453125 -18.234375 L 2.140625 -18.234375 L 2.703125 -21.296875 L 6.015625 -21.296875 L 7.375 -26.390625 L 10.5625 -26.390625 L 9.609375 -21.296875 L 15.921875 -21.296875 L 15.359375 -18.234375 L 9.09375 -18.234375 L 7 -6.609375 C 6.9375 -6.148438 6.90625 -5.75 6.90625 -5.40625 C 6.90625 -4.519531 7.140625 -3.910156 7.609375 -3.578125 C 8.085938 -3.253906 8.859375 -3.09375 9.921875 -3.09375 L 12.703125 -3.09375 L 12.140625 0 Z M 8.796875 0 "/></g></g></g><g fill="#dbf5ff" fill-opacity="1"><g transform="translate(41.6115, 353.109818)"><g><path d="M 1.109375 0 L 4.84375 -21.296875 L 8.15625 -21.296875 L 7.765625 -17.515625 C 8.679688 -18.828125 9.890625 -19.867188 11.390625 -20.640625 C 12.898438 -21.410156 14.613281 -21.796875 16.53125 -21.796875 L 15.875 -18.03125 L 14.890625 -18.03125 C 13.609375 -18.03125 12.398438 -17.828125 11.265625 -17.421875 C 10.140625 -17.023438 9.175781 -16.347656 8.375 -15.390625 C 7.570312 -14.429688 7.023438 -13.117188 6.734375 -11.453125 L 4.71875 0 Z M 1.109375 0 "/></g></g></g><g fill="#dbf5ff" fill-opacity="1"><g transform="translate(57.44707, 353.109818)"><g><path d="M 8.796875 0.515625 C 6.648438 0.515625 4.96875 -0.078125 3.75 -1.265625 C 2.539062 -2.453125 1.9375 -4.148438 1.9375 -6.359375 C 1.9375 -6.753906 1.945312 -7.160156 1.96875 -7.578125 C 2 -7.992188 2.054688 -8.414062 2.140625 -8.84375 L 4.375 -21.296875 L 7.984375 -21.296875 L 5.84375 -9.234375 C 5.78125 -8.859375 5.726562 -8.5 5.6875 -8.15625 C 5.644531 -7.8125 5.625 -7.484375 5.625 -7.171875 C 5.625 -4.109375 7.125 -2.578125 10.125 -2.578125 C 11.925781 -2.578125 13.539062 -3.207031 14.96875 -4.46875 C 16.40625 -5.726562 17.367188 -7.53125 17.859375 -9.875 L 19.875 -21.296875 L 23.484375 -21.296875 L 19.75 0 L 16.484375 0 L 16.90625 -3.859375 C 15.988281 -2.484375 14.816406 -1.410156 13.390625 -0.640625 C 11.960938 0.128906 10.429688 0.515625 8.796875 0.515625 Z M 8.796875 0.515625 "/></g></g></g><g fill="#dbf5ff" fill-opacity="1"><g transform="translate(82.037238, 353.109818)"><g><path d="M 9.3125 0.515625 C 6.65625 0.515625 4.582031 -0.160156 3.09375 -1.515625 C 1.601562 -2.878906 0.957031 -4.722656 1.15625 -7.046875 L 4.8125 -7.046875 C 4.75 -5.835938 5.101562 -4.78125 5.875 -3.875 C 6.65625 -2.976562 7.972656 -2.53125 9.828125 -2.53125 C 11.347656 -2.53125 12.5625 -2.863281 13.46875 -3.53125 C 14.382812 -4.207031 14.84375 -5.148438 14.84375 -6.359375 C 14.84375 -7.296875 14.421875 -7.976562 13.578125 -8.40625 C 12.734375 -8.84375 11.613281 -9.203125 10.21875 -9.484375 C 9.15625 -9.710938 8.125 -10.035156 7.125 -10.453125 C 6.125 -10.867188 5.285156 -11.445312 4.609375 -12.1875 C 3.941406 -12.9375 3.609375 -13.878906 3.609375 -15.015625 C 3.609375 -16.304688 3.976562 -17.457031 4.71875 -18.46875 C 5.46875 -19.488281 6.492188 -20.296875 7.796875 -20.890625 C 9.097656 -21.492188 10.578125 -21.796875 12.234375 -21.796875 C 14.492188 -21.796875 16.300781 -21.226562 17.65625 -20.09375 C 19.019531 -18.96875 19.644531 -17.363281 19.53125 -15.28125 L 15.921875 -15.28125 C 15.984375 -16.34375 15.648438 -17.1875 14.921875 -17.8125 C 14.191406 -18.4375 13.164062 -18.75 11.84375 -18.75 C 10.53125 -18.75 9.453125 -18.441406 8.609375 -17.828125 C 7.765625 -17.210938 7.34375 -16.460938 7.34375 -15.578125 C 7.34375 -14.722656 7.75 -14.078125 8.5625 -13.640625 C 9.375 -13.210938 10.46875 -12.84375 11.84375 -12.53125 C 13.019531 -12.269531 14.125 -11.925781 15.15625 -11.5 C 16.1875 -11.070312 17.019531 -10.484375 17.65625 -9.734375 C 18.300781 -8.992188 18.625 -8.023438 18.625 -6.828125 C 18.625 -5.335938 18.222656 -4.039062 17.421875 -2.9375 C 16.617188 -1.832031 15.515625 -0.976562 14.109375 -0.375 C 12.710938 0.21875 11.113281 0.515625 9.3125 0.515625 Z M 9.3125 0.515625 "/></g></g></g><g fill="#dbf5ff" fill-opacity="1"><g transform="translate(104.095429, 353.109818)"><g><path d="M 8.796875 0 C 7.023438 0 5.648438 -0.347656 4.671875 -1.046875 C 3.703125 -1.753906 3.21875 -2.953125 3.21875 -4.640625 C 3.21875 -4.921875 3.234375 -5.222656 3.265625 -5.546875 C 3.296875 -5.878906 3.335938 -6.234375 3.390625 -6.609375 L 5.453125 -18.234375 L 2.140625 -18.234375 L 2.703125 -21.296875 L 6.015625 -21.296875 L 7.375 -26.390625 L 10.5625 -26.390625 L 9.609375 -21.296875 L 15.921875 -21.296875 L 15.359375 -18.234375 L 9.09375 -18.234375 L 7 -6.609375 C 6.9375 -6.148438 6.90625 -5.75 6.90625 -5.40625 C 6.90625 -4.519531 7.140625 -3.910156 7.609375 -3.578125 C 8.085938 -3.253906 8.859375 -3.09375 9.921875 -3.09375 L 12.703125 -3.09375 L 12.140625 0 Z M 8.796875 0 "/></g></g></g><g fill="#dbf5ff" fill-opacity="1"><g transform="translate(119.973891, 353.109818)"><g/></g></g><g fill="#dbf5ff" fill-opacity="1"><g transform="translate(132.247529, 353.109818)"><g><path d="M 8.796875 0 C 7.023438 0 5.648438 -0.347656 4.671875 -1.046875 C 3.703125 -1.753906 3.21875 -2.953125 3.21875 -4.640625 C 3.21875 -4.921875 3.234375 -5.222656 3.265625 -5.546875 C 3.296875 -5.878906 3.335938 -6.234375 3.390625 -6.609375 L 5.453125 -18.234375 L 2.140625 -18.234375 L 2.703125 -21.296875 L 6.015625 -21.296875 L 7.375 -26.390625 L 10.5625 -26.390625 L 9.609375 -21.296875 L 15.921875 -21.296875 L 15.359375 -18.234375 L 9.09375 -18.234375 L 7 -6.609375 C 6.9375 -6.148438 6.90625 -5.75 6.90625 -5.40625 C 6.90625 -4.519531 7.140625 -3.910156 7.609375 -3.578125 C 8.085938 -3.253906 8.859375 -3.09375 9.921875 -3.09375 L 12.703125 -3.09375 L 12.140625 0 Z M 8.796875 0 "/></g></g></g><g fill="#dbf5ff" fill-opacity="1"><g transform="translate(148.125991, 353.109818)"><g><path d="M 1.109375 0 L 6.53125 -30.90625 L 10.125 -30.90625 L 7.8125 -17.640625 C 8.726562 -18.929688 9.894531 -19.945312 11.3125 -20.6875 C 12.726562 -21.425781 14.222656 -21.796875 15.796875 -21.796875 C 18.285156 -21.796875 20.148438 -21.03125 21.390625 -19.5 C 22.640625 -17.976562 22.976562 -15.628906 22.40625 -12.453125 L 20.21875 0 L 16.609375 0 L 18.71875 -12.0625 C 19.488281 -16.5 18.054688 -18.71875 14.421875 -18.71875 C 12.585938 -18.71875 10.941406 -18.050781 9.484375 -16.71875 C 8.023438 -15.382812 7.082031 -13.488281 6.65625 -11.03125 L 4.71875 0 Z M 1.109375 0 "/></g></g></g><g fill="#dbf5ff" fill-opacity="1"><g transform="translate(172.716159, 353.109818)"><g><path d="M 10.5625 0.515625 C 7.925781 0.515625 5.8125 -0.296875 4.21875 -1.921875 C 2.632812 -3.554688 1.84375 -5.75 1.84375 -8.5 C 1.84375 -10.957031 2.382812 -13.191406 3.46875 -15.203125 C 4.5625 -17.222656 6.054688 -18.828125 7.953125 -20.015625 C 9.859375 -21.203125 12.03125 -21.796875 14.46875 -21.796875 C 16.320312 -21.796875 17.882812 -21.429688 19.15625 -20.703125 C 20.4375 -19.972656 21.394531 -18.992188 22.03125 -17.765625 C 22.675781 -16.535156 23 -15.175781 23 -13.6875 C 23 -13.113281 22.9375 -12.460938 22.8125 -11.734375 C 22.6875 -11.003906 22.566406 -10.367188 22.453125 -9.828125 L 5.453125 -9.828125 C 5.390625 -9.335938 5.359375 -8.910156 5.359375 -8.546875 C 5.359375 -6.515625 5.929688 -5.003906 7.078125 -4.015625 C 8.222656 -3.023438 9.566406 -2.53125 11.109375 -2.53125 C 12.597656 -2.53125 13.90625 -2.878906 15.03125 -3.578125 C 16.164062 -4.285156 17.050781 -5.210938 17.6875 -6.359375 L 21.25 -6.359375 C 20.363281 -4.378906 18.988281 -2.738281 17.125 -1.4375 C 15.257812 -0.132812 13.070312 0.515625 10.5625 0.515625 Z M 14 -18.75 C 12.28125 -18.75 10.660156 -18.226562 9.140625 -17.1875 C 7.628906 -16.144531 6.585938 -14.625 6.015625 -12.625 L 19.40625 -12.625 C 19.425781 -12.789062 19.441406 -12.953125 19.453125 -13.109375 C 19.472656 -13.265625 19.484375 -13.414062 19.484375 -13.5625 C 19.484375 -15.195312 18.984375 -16.46875 17.984375 -17.375 C 16.984375 -18.289062 15.65625 -18.75 14 -18.75 Z M 14 -18.75 "/></g></g></g><g fill="#dbf5ff" fill-opacity="1"><g transform="translate(197.091757, 353.109818)"><g/></g></g><g fill="#dbf5ff" fill-opacity="1"><g transform="translate(209.365395, 353.109818)"><g><path d="M -0.59375 9.4375 L 4.84375 -21.296875 L 8.203125 -21.296875 L 7.859375 -17.765625 C 8.742188 -18.878906 9.835938 -19.828125 11.140625 -20.609375 C 12.441406 -21.398438 14.050781 -21.796875 15.96875 -21.796875 C 17.800781 -21.796875 19.375 -21.394531 20.6875 -20.59375 C 22 -19.800781 23.003906 -18.71875 23.703125 -17.34375 C 24.410156 -15.96875 24.765625 -14.40625 24.765625 -12.65625 C 24.765625 -10.164062 24.226562 -7.925781 23.15625 -5.9375 C 22.082031 -3.957031 20.613281 -2.382812 18.75 -1.21875 C 16.894531 -0.0625 14.796875 0.515625 12.453125 0.515625 C 11.304688 0.515625 10.253906 0.316406 9.296875 -0.078125 C 8.335938 -0.484375 7.519531 -1 6.84375 -1.625 C 6.175781 -2.257812 5.679688 -2.921875 5.359375 -3.609375 L 3 9.4375 Z M 12.65625 -2.625 C 14.289062 -2.625 15.738281 -3.035156 17 -3.859375 C 18.257812 -4.691406 19.242188 -5.820312 19.953125 -7.25 C 20.671875 -8.6875 21.03125 -10.316406 21.03125 -12.140625 C 21.03125 -14.035156 20.492188 -15.597656 19.421875 -16.828125 C 18.347656 -18.054688 16.894531 -18.671875 15.0625 -18.671875 C 13.4375 -18.671875 11.976562 -18.238281 10.6875 -17.375 C 9.394531 -16.519531 8.378906 -15.351562 7.640625 -13.875 C 6.898438 -12.40625 6.53125 -10.769531 6.53125 -8.96875 C 6.53125 -7.050781 7.085938 -5.515625 8.203125 -4.359375 C 9.316406 -3.203125 10.800781 -2.625 12.65625 -2.625 Z M 12.65625 -2.625 "/></g></g></g><g fill="#dbf5ff" fill-opacity="1"><g transform="translate(235.972581, 353.109818)"><g><path d="M 1.109375 0 L 4.84375 -21.296875 L 8.15625 -21.296875 L 7.765625 -17.515625 C 8.679688 -18.828125 9.890625 -19.867188 11.390625 -20.640625 C 12.898438 -21.410156 14.613281 -21.796875 16.53125 -21.796875 L 15.875 -18.03125 L 14.890625 -18.03125 C 13.609375 -18.03125 12.398438 -17.828125 11.265625 -17.421875 C 10.140625 -17.023438 9.175781 -16.347656 8.375 -15.390625 C 7.570312 -14.429688 7.023438 -13.117188 6.734375 -11.453125 L 4.71875 0 Z M 1.109375 0 "/></g></g></g><g fill="#dbf5ff" fill-opacity="1"><g transform="translate(251.808151, 353.109818)"><g><path d="M 10.9375 0.515625 C 9.164062 0.515625 7.59375 0.113281 6.21875 -0.6875 C 4.84375 -1.488281 3.769531 -2.585938 3 -3.984375 C 2.226562 -5.390625 1.84375 -6.976562 1.84375 -8.75 C 1.84375 -10.644531 2.171875 -12.378906 2.828125 -13.953125 C 3.484375 -15.523438 4.382812 -16.894531 5.53125 -18.0625 C 6.675781 -19.238281 8.003906 -20.15625 9.515625 -20.8125 C 11.035156 -21.46875 12.6875 -21.796875 14.46875 -21.796875 C 16.238281 -21.796875 17.8125 -21.410156 19.1875 -20.640625 C 20.5625 -19.867188 21.632812 -18.796875 22.40625 -17.421875 C 23.175781 -16.046875 23.5625 -14.457031 23.5625 -12.65625 C 23.5625 -10.800781 23.238281 -9.070312 22.59375 -7.46875 C 21.945312 -5.863281 21.046875 -4.46875 19.890625 -3.28125 C 18.734375 -2.09375 17.394531 -1.160156 15.875 -0.484375 C 14.363281 0.179688 12.71875 0.515625 10.9375 0.515625 Z M 11.421875 -2.578125 C 13.023438 -2.578125 14.460938 -3.003906 15.734375 -3.859375 C 17.003906 -4.722656 18.007812 -5.894531 18.75 -7.375 C 19.5 -8.863281 19.875 -10.539062 19.875 -12.40625 C 19.875 -14.40625 19.289062 -15.957031 18.125 -17.0625 C 16.96875 -18.164062 15.59375 -18.71875 14 -18.71875 C 12.414062 -18.71875 10.992188 -18.285156 9.734375 -17.421875 C 8.484375 -16.566406 7.484375 -15.394531 6.734375 -13.90625 C 5.992188 -12.414062 5.625 -10.742188 5.625 -8.890625 C 5.625 -7.546875 5.882812 -6.40625 6.40625 -5.46875 C 6.9375 -4.539062 7.644531 -3.828125 8.53125 -3.328125 C 9.425781 -2.828125 10.390625 -2.578125 11.421875 -2.578125 Z M 11.421875 -2.578125 "/></g></g></g><g fill="#dbf5ff" fill-opacity="1"><g transform="translate(277.256633, 353.109818)"><g><path d="M 10.734375 0.515625 C 8.984375 0.515625 7.4375 0.132812 6.09375 -0.625 C 4.75 -1.382812 3.703125 -2.441406 2.953125 -3.796875 C 2.210938 -5.160156 1.84375 -6.742188 1.84375 -8.546875 C 1.84375 -10.429688 2.171875 -12.179688 2.828125 -13.796875 C 3.484375 -15.410156 4.398438 -16.816406 5.578125 -18.015625 C 6.753906 -19.222656 8.113281 -20.15625 9.65625 -20.8125 C 11.195312 -21.46875 12.859375 -21.796875 14.640625 -21.796875 C 17.210938 -21.796875 19.253906 -21.125 20.765625 -19.78125 C 22.285156 -18.4375 23.0625 -16.617188 23.09375 -14.328125 L 19.40625 -14.328125 C 19.40625 -15.796875 18.890625 -16.894531 17.859375 -17.625 C 16.828125 -18.351562 15.582031 -18.71875 14.125 -18.71875 C 12.550781 -18.71875 11.117188 -18.296875 9.828125 -17.453125 C 8.535156 -16.609375 7.503906 -15.445312 6.734375 -13.96875 C 5.960938 -12.5 5.578125 -10.816406 5.578125 -8.921875 C 5.578125 -6.890625 6.132812 -5.316406 7.25 -4.203125 C 8.363281 -3.085938 9.707031 -2.53125 11.28125 -2.53125 C 12.75 -2.53125 14.117188 -2.898438 15.390625 -3.640625 C 16.660156 -4.390625 17.566406 -5.492188 18.109375 -6.953125 L 21.796875 -6.953125 C 21.253906 -5.492188 20.441406 -4.195312 19.359375 -3.0625 C 18.273438 -1.9375 16.992188 -1.054688 15.515625 -0.421875 C 14.046875 0.203125 12.453125 0.515625 10.734375 0.515625 Z M 10.734375 0.515625 "/></g></g></g><g fill="#dbf5ff" fill-opacity="1"><g transform="translate(301.67516, 353.109818)"><g><path d="M 10.5625 0.515625 C 7.925781 0.515625 5.8125 -0.296875 4.21875 -1.921875 C 2.632812 -3.554688 1.84375 -5.75 1.84375 -8.5 C 1.84375 -10.957031 2.382812 -13.191406 3.46875 -15.203125 C 4.5625 -17.222656 6.054688 -18.828125 7.953125 -20.015625 C 9.859375 -21.203125 12.03125 -21.796875 14.46875 -21.796875 C 16.320312 -21.796875 17.882812 -21.429688 19.15625 -20.703125 C 20.4375 -19.972656 21.394531 -18.992188 22.03125 -17.765625 C 22.675781 -16.535156 23 -15.175781 23 -13.6875 C 23 -13.113281 22.9375 -12.460938 22.8125 -11.734375 C 22.6875 -11.003906 22.566406 -10.367188 22.453125 -9.828125 L 5.453125 -9.828125 C 5.390625 -9.335938 5.359375 -8.910156 5.359375 -8.546875 C 5.359375 -6.515625 5.929688 -5.003906 7.078125 -4.015625 C 8.222656 -3.023438 9.566406 -2.53125 11.109375 -2.53125 C 12.597656 -2.53125 13.90625 -2.878906 15.03125 -3.578125 C 16.164062 -4.285156 17.050781 -5.210938 17.6875 -6.359375 L 21.25 -6.359375 C 20.363281 -4.378906 18.988281 -2.738281 17.125 -1.4375 C 15.257812 -0.132812 13.070312 0.515625 10.5625 0.515625 Z M 14 -18.75 C 12.28125 -18.75 10.660156 -18.226562 9.140625 -17.1875 C 7.628906 -16.144531 6.585938 -14.625 6.015625 -12.625 L 19.40625 -12.625 C 19.425781 -12.789062 19.441406 -12.953125 19.453125 -13.109375 C 19.472656 -13.265625 19.484375 -13.414062 19.484375 -13.5625 C 19.484375 -15.195312 18.984375 -16.46875 17.984375 -17.375 C 16.984375 -18.289062 15.65625 -18.75 14 -18.75 Z M 14 -18.75 "/></g></g></g><g fill="#dbf5ff" fill-opacity="1"><g transform="translate(326.050758, 353.109818)"><g><path d="M 9.3125 0.515625 C 6.65625 0.515625 4.582031 -0.160156 3.09375 -1.515625 C 1.601562 -2.878906 0.957031 -4.722656 1.15625 -7.046875 L 4.8125 -7.046875 C 4.75 -5.835938 5.101562 -4.78125 5.875 -3.875 C 6.65625 -2.976562 7.972656 -2.53125 9.828125 -2.53125 C 11.347656 -2.53125 12.5625 -2.863281 13.46875 -3.53125 C 14.382812 -4.207031 14.84375 -5.148438 14.84375 -6.359375 C 14.84375 -7.296875 14.421875 -7.976562 13.578125 -8.40625 C 12.734375 -8.84375 11.613281 -9.203125 10.21875 -9.484375 C 9.15625 -9.710938 8.125 -10.035156 7.125 -10.453125 C 6.125 -10.867188 5.285156 -11.445312 4.609375 -12.1875 C 3.941406 -12.9375 3.609375 -13.878906 3.609375 -15.015625 C 3.609375 -16.304688 3.976562 -17.457031 4.71875 -18.46875 C 5.46875 -19.488281 6.492188 -20.296875 7.796875 -20.890625 C 9.097656 -21.492188 10.578125 -21.796875 12.234375 -21.796875 C 14.492188 -21.796875 16.300781 -21.226562 17.65625 -20.09375 C 19.019531 -18.96875 19.644531 -17.363281 19.53125 -15.28125 L 15.921875 -15.28125 C 15.984375 -16.34375 15.648438 -17.1875 14.921875 -17.8125 C 14.191406 -18.4375 13.164062 -18.75 11.84375 -18.75 C 10.53125 -18.75 9.453125 -18.441406 8.609375 -17.828125 C 7.765625 -17.210938 7.34375 -16.460938 7.34375 -15.578125 C 7.34375 -14.722656 7.75 -14.078125 8.5625 -13.640625 C 9.375 -13.210938 10.46875 -12.84375 11.84375 -12.53125 C 13.019531 -12.269531 14.125 -11.925781 15.15625 -11.5 C 16.1875 -11.070312 17.019531 -10.484375 17.65625 -9.734375 C 18.300781 -8.992188 18.625 -8.023438 18.625 -6.828125 C 18.625 -5.335938 18.222656 -4.039062 17.421875 -2.9375 C 16.617188 -1.832031 15.515625 -0.976562 14.109375 -0.375 C 12.710938 0.21875 11.113281 0.515625 9.3125 0.515625 Z M 9.3125 0.515625 "/></g></g></g><g fill="#dbf5ff" fill-opacity="1"><g transform="translate(348.108949, 353.109818)"><g><path d="M 9.3125 0.515625 C 6.65625 0.515625 4.582031 -0.160156 3.09375 -1.515625 C 1.601562 -2.878906 0.957031 -4.722656 1.15625 -7.046875 L 4.8125 -7.046875 C 4.75 -5.835938 5.101562 -4.78125 5.875 -3.875 C 6.65625 -2.976562 7.972656 -2.53125 9.828125 -2.53125 C 11.347656 -2.53125 12.5625 -2.863281 13.46875 -3.53125 C 14.382812 -4.207031 14.84375 -5.148438 14.84375 -6.359375 C 14.84375 -7.296875 14.421875 -7.976562 13.578125 -8.40625 C 12.734375 -8.84375 11.613281 -9.203125 10.21875 -9.484375 C 9.15625 -9.710938 8.125 -10.035156 7.125 -10.453125 C 6.125 -10.867188 5.285156 -11.445312 4.609375 -12.1875 C 3.941406 -12.9375 3.609375 -13.878906 3.609375 -15.015625 C 3.609375 -16.304688 3.976562 -17.457031 4.71875 -18.46875 C 5.46875 -19.488281 6.492188 -20.296875 7.796875 -20.890625 C 9.097656 -21.492188 10.578125 -21.796875 12.234375 -21.796875 C 14.492188 -21.796875 16.300781 -21.226562 17.65625 -20.09375 C 19.019531 -18.96875 19.644531 -17.363281 19.53125 -15.28125 L 15.921875 -15.28125 C 15.984375 -16.34375 15.648438 -17.1875 14.921875 -17.8125 C 14.191406 -18.4375 13.164062 -18.75 11.84375 -18.75 C 10.53125 -18.75 9.453125 -18.441406 8.609375 -17.828125 C 7.765625 -17.210938 7.34375 -16.460938 7.34375 -15.578125 C 7.34375 -14.722656 7.75 -14.078125 8.5625 -13.640625 C 9.375 -13.210938 10.46875 -12.84375 11.84375 -12.53125 C 13.019531 -12.269531 14.125 -11.925781 15.15625 -11.5 C 16.1875 -11.070312 17.019531 -10.484375 17.65625 -9.734375 C 18.300781 -8.992188 18.625 -8.023438 18.625 -6.828125 C 18.625 -5.335938 18.222656 -4.039062 17.421875 -2.9375 C 16.617188 -1.832031 15.515625 -0.976562 14.109375 -0.375 C 12.710938 0.21875 11.113281 0.515625 9.3125 0.515625 Z M 9.3125 0.515625 "/></g></g></g><g fill="#dbf5ff" fill-opacity="1"><g transform="translate(370.16714, 353.109818)"><g><path d="M 2.75 0.21875 C 2.03125 0.21875 1.429688 -0.015625 0.953125 -0.484375 C 0.484375 -0.960938 0.25 -1.546875 0.25 -2.234375 C 0.25 -2.921875 0.484375 -3.5 0.953125 -3.96875 C 1.429688 -4.4375 2.03125 -4.671875 2.75 -4.671875 C 3.457031 -4.671875 4.039062 -4.4375 4.5 -3.96875 C 4.957031 -3.5 5.1875 -2.921875 5.1875 -2.234375 C 5.1875 -1.546875 4.957031 -0.960938 4.5 -0.484375 C 4.039062 -0.015625 3.457031 0.21875 2.75 0.21875 Z M 2.75 0.21875 "/></g></g></g><g fill="#dbf5ff" fill-opacity="1"><g transform="translate(378.578457, 353.109818)"><g><path d="M 2.75 0.21875 C 2.03125 0.21875 1.429688 -0.015625 0.953125 -0.484375 C 0.484375 -0.960938 0.25 -1.546875 0.25 -2.234375 C 0.25 -2.921875 0.484375 -3.5 0.953125 -3.96875 C 1.429688 -4.4375 2.03125 -4.671875 2.75 -4.671875 C 3.457031 -4.671875 4.039062 -4.4375 4.5 -3.96875 C 4.957031 -3.5 5.1875 -2.921875 5.1875 -2.234375 C 5.1875 -1.546875 4.957031 -0.960938 4.5 -0.484375 C 4.039062 -0.015625 3.457031 0.21875 2.75 0.21875 Z M 2.75 0.21875 "/></g></g></g><g fill="#dbf5ff" fill-opacity="1"><g transform="translate(386.989773, 353.109818)"><g><path d="M 2.75 0.21875 C 2.03125 0.21875 1.429688 -0.015625 0.953125 -0.484375 C 0.484375 -0.960938 0.25 -1.546875 0.25 -2.234375 C 0.25 -2.921875 0.484375 -3.5 0.953125 -3.96875 C 1.429688 -4.4375 2.03125 -4.671875 2.75 -4.671875 C 3.457031 -4.671875 4.039062 -4.4375 4.5 -3.96875 C 4.957031 -3.5 5.1875 -2.921875 5.1875 -2.234375 C 5.1875 -1.546875 4.957031 -0.960938 4.5 -0.484375 C 4.039062 -0.015625 3.457031 0.21875 2.75 0.21875 Z M 2.75 0.21875 "/></g></g></g></svg>